/* XPM */
static char * item_xpm[] = {
"64 64 196 2",
"  	c None",
". 	c #E17B50",
"+ 	c #D9896D",
"@ 	c #E27A4C",
"# 	c #E27A4D",
"$ 	c #00EDFF",
"% 	c #88D1DA",
"& 	c #CA9D8F",
"* 	c #69DEEB",
"= 	c #ABBCBD",
"- 	c #CD9B8C",
"; 	c #DC8768",
"> 	c #3CE8F9",
", 	c #6ADDEA",
"' 	c #9FC3C8",
") 	c #CD9A8A",
"! 	c #17E5F9",
"~ 	c #36D8ED",
"{ 	c #77BDCC",
"] 	c #AE8F8A",
"^ 	c #5F99BC",
"/ 	c #6B7E9E",
"( 	c #765E69",
"_ 	c #76428A",
": 	c #663978",
"< 	c #40264D",
"[ 	c #773B87",
"} 	c #663476",
"| 	c #3D224C",
"1 	c #773E88",
"2 	c #663877",
"3 	c #40254D",
"4 	c #764089",
"5 	c #6578AB",
"6 	c #5B548B",
"7 	c #393458",
"8 	c #393659",
"9 	c #6B5F9E",
"0 	c #2BD3ED",
"a 	c #44A3CD",
"b 	c #4273A4",
"c 	c #294667",
"d 	c #284969",
"e 	c #577AB4",
"f 	c #03D3E3",
"g 	c #16BFD5",
"h 	c #269BBF",
"i 	c #27709A",
"j 	c #194360",
"k 	c #174763",
"l 	c #4372A4",
"m 	c #5C548B",
"n 	c #625F8C",
"o 	c #07A2AF",
"p 	c #0F7A88",
"q 	c #166178",
"r 	c #174762",
"s 	c #112C3E",
"t 	c #0F2E3F",
"u 	c #284667",
"v 	c #397A8E",
"w 	c #23C8DA",
"x 	c #00B6C4",
"y 	c #007780",
"z 	c #002D2D",
"A 	c #002725",
"B 	c #002F2F",
"C 	c #083333",
"D 	c #0E3534",
"E 	c #0F3534",
"F 	c #0E302E",
"G 	c #0C7982",
"H 	c #06B7C5",
"I 	c #105F61",
"J 	c #12504D",
"K 	c #12514D",
"L 	c #12534F",
"M 	c #125351",
"N 	c #11524E",
"O 	c #0F5350",
"P 	c #0D6264",
"Q 	c #0A7A82",
"R 	c #05D6E6",
"S 	c #02BAC7",
"T 	c #0D7B83",
"U 	c #425D5E",
"V 	c #6B8889",
"W 	c #7B9D9D",
"X 	c #6B908F",
"Y 	c #437472",
"Z 	c #14605D",
"` 	c #105F5C",
" .	c #135451",
"..	c #104141",
"+.	c #08BAC8",
"@.	c #05D7E6",
"#.	c #0DAEB9",
"$.	c #00888E",
"%.	c #126769",
"&.	c #6B8989",
"*.	c #AAC5C7",
"=.	c #C3DFE1",
"-.	c #AAC7C9",
";.	c #6B9090",
">.	c #055E5B",
",.	c #14615E",
"'.	c #145B58",
").	c #10898F",
"!.	c #06D4E3",
"~.	c #10989F",
"{.	c #00675C",
"].	c #127760",
"^.	c #7BACA0",
"/.	c #C3E2E2",
"(.	c #E0FBFE",
"_.	c #E0FAFE",
":.	c #C3DEE1",
"<.	c #7B9C9D",
"[.	c #145E5D",
"}.	c #005B59",
"|.	c #13695F",
"1.	c #127963",
"2.	c #136A5F",
"3.	c #1098A0",
"4.	c #05D4E3",
"5.	c #00EEFF",
"6.	c #06D3E3",
"7.	c #10979E",
"8.	c #00755D",
"9.	c #0E986A",
"0.	c #7AC3A6",
"a.	c #C3E9E3",
"b.	c #005C59",
"c.	c #145F5D",
"d.	c #127A64",
"e.	c #0E9B6E",
"f.	c #127861",
"g.	c #027761",
"h.	c #0E996A",
"i.	c #6ABD9B",
"j.	c #AADDCE",
"k.	c #C3ECE4",
"l.	c #AAD6CC",
"m.	c #6AA694",
"n.	c #118166",
"o.	c #007F63",
"p.	c #118165",
"q.	c #108E69",
"r.	c #0DA06F",
"s.	c #0E996B",
"t.	c #158F99",
"u.	c #17C3D8",
"v.	c #18DAF3",
"w.	c #0F685E",
"x.	c #429A7C",
"y.	c #6ABE9B",
"z.	c #7ACEA9",
"A.	c #6AC59D",
"B.	c #41B483",
"C.	c #0BA973",
"D.	c #05A972",
"E.	c #0BAA73",
"F.	c #108D69",
"G.	c #127961",
"H.	c #1C7D8D",
"I.	c #27A1C3",
"J.	c #2CB1DA",
"K.	c #145D5A",
"L.	c #145C58",
"M.	c #0E9A6D",
"N.	c #135F5A",
"O.	c #145E5B",
"P.	c #207186",
"Q.	c #2E89B6",
"R.	c #3494CB",
"S.	c #145C59",
"T.	c #007F62",
"U.	c #0C8065",
"V.	c #135E5B",
"W.	c #207086",
"X.	c #2E88B6",
"Y.	c #3493CA",
"Z.	c #118B91",
"`.	c #136F70",
" +	c #145D59",
".+	c #145E5A",
"++	c #145F5A",
"@+	c #135F5B",
"#+	c #176468",
"$+	c #1D6D7D",
"%+	c #257998",
"&+	c #2F8AB9",
"*+	c #0ABECB",
"=+	c #2980A5",
"-+	c #2E8AB8",
";+	c #17C4D9",
"                                                                                                                                ",
"                                                                                                                                ",
"                                                                                                                                ",
"                                                                                                                                ",
"                                                                                                                                ",
"                                                                                                                                ",
"                                                                                                                                ",
"                                                                                                                                ",
"                                                                                                                                ",
"                                                                                                                                ",
"                                                                                                                                ",
"                                                                                                                                ",
"                                                                                                                                ",
"                                                                                                                                ",
"                                                                                                                                ",
"                                                                                                                                ",
"                                                        . . . . . .                                                             ",
"                                                        + @ # # @ +                                                             ",
"                                                    $ % & . @ @ . & % $                                                         ",
"                                                    $ * = - ; ; - = * $                                                         ",
"                                                    $ > , ' ) ) ' , > $                                                         ",
"                                                    $ ! ~ { ] ] { ~ ! $                                                         ",
"                                                        ^ / ( ( / ^                                                             ",
"                                                        _ : < < : _                                                             ",
"                                                        [ } | | } [                                                             ",
"                                                        1 2 3 3 2 4                                                             ",
"                                                        _ : < < : _                                                             ",
"                                                        5 6 7 8 6 9                                                             ",
"                                                    $ 0 a b c d b e 9 _                                                         ",
"                                                    f g h i j k i l m n                                                         ",
"                                                $ f o p q r s t r u 8 v w $                                                     ",
"                                                f x y z A B C D E F D G H f                                                     ",
"                                            $ f o G I J K L M M L N O P Q o f $                                                 ",
"                                            R S T U V W W X Y Z ` Z Z  ...T +.R                                                 ",
"                                        $ @.#.$.%.&.*.=.=.-.;.Z >.,.Z '. .%.).#.@.$                                             ",
"                                        $ !.~.{.].^./.(._.:.<.[.}.[.[.|.1.].2.3.4.5.                                            ",
"                                        $ 6.7.8.9.0.a.(.(.=.W Z b.c.Z d.e.9.f.7.6.$                                             ",
"                                        $ 6.~.g.h.i.j.k.k.l.m.n.o.p.n.q.r.s.1.t.u.v.                                            ",
"                                        $ !.~.w.].x.y.z.z.A.B.C.D.E.C.r.F.G.|.H.I.J.                                            ",
"                                        $ !.7.K.L.1.M.C.E.C.C.C.C.E.C.M.1.N.O.P.Q.R.                                            ",
"                                        $ !.~.c.S.w.g.T.T.o.U.n.n.n.n.1.|.V.c.W.X.Y.                                            ",
"                                        $ R #.Z.`. +L. + + + +.+++@+@+N.@+#+$+%+&+R.                                            ",
"                                            R *+Z.Z K.[.[.[.[.[.[.[.[.O.Z $+=+-+                                                ",
"                                            $ R #.~.7.~.~.3.~.t.H.P.W.P.P.%+-+R.                                                ",
"                                                R !.!.!.!.4.!.;+I.Q.X.Q.Q.&+                                                    ",
"                                                $ $ $ $ $ 5.$ v.J.R.Y.R.R.R.                                                    ",
"                                                                                                                                ",
"                                                                                                                                ",
"                                                                                                                                ",
"                                                                                                                                ",
"                                                                                                                                ",
"                                                                                                                                ",
"                                                                                                                                ",
"                                                                                                                                ",
"                                                                                                                                ",
"                                                                                                                                ",
"                                                                                                                                ",
"                                                                                                                                ",
"                                                                                                                                ",
"                                                                                                                                ",
"                                                                                                                                ",
"                                                                                                                                ",
"                                                                                                                                ",
"                                                                                                                                "};
