/* XPM */
static char * floor3_xpm[] = {
"64 64 106 2",
"  	c #0C1317",
". 	c #071015",
"+ 	c #000812",
"@ 	c #0A1014",
"# 	c #050A0D",
"$ 	c #030E16",
"% 	c #000C15",
"& 	c #332E21",
"* 	c #564B2F",
"= 	c #574C2F",
"- 	c #363122",
"; 	c #081116",
"> 	c #594F34",
", 	c #8E7C4F",
"' 	c #343023",
") 	c #5A4F34",
"! 	c #85754B",
"~ 	c #AA955F",
"{ 	c #A38F5B",
"] 	c #665A3B",
"^ 	c #061116",
"/ 	c #000814",
"( 	c #574D33",
"_ 	c #8E7C50",
": 	c #B69F66",
"< 	c #000914",
"[ 	c #000012",
"} 	c #564C33",
"| 	c #927F53",
"1 	c #6C5A40",
"2 	c #42332C",
"3 	c #231E1E",
"4 	c #031015",
"5 	c #010F15",
"6 	c #0A1217",
"7 	c #373224",
"8 	c #755C47",
"9 	c #6A5142",
"0 	c #332F22",
"a 	c #65593A",
"b 	c #665A3A",
"c 	c #705546",
"d 	c #5C463A",
"e 	c #4D3B32",
"f 	c #4C3B31",
"g 	c #251F1F",
"h 	c #584E33",
"i 	c #A38E5B",
"j 	c #5B463A",
"k 	c #715546",
"l 	c #7B5D4C",
"m 	c #7A5D4C",
"n 	c #41332C",
"o 	c #827249",
"p 	c #A9945F",
"q 	c #BAA368",
"r 	c #BBA468",
"s 	c #6B5A3F",
"t 	c #363124",
"u 	c #BBA469",
"v 	c #071116",
"w 	c #27211F",
"x 	c #4B3931",
"y 	c #000413",
"z 	c #BCA569",
"A 	c #84744A",
"B 	c #675A3B",
"C 	c #302C21",
"D 	c #675B3B",
"E 	c #353123",
"F 	c #000D15",
"G 	c #8D7C4F",
"H 	c #A6915D",
"I 	c #AC9562",
"J 	c #9D865A",
"K 	c #725E43",
"L 	c #4A3931",
"M 	c #786646",
"N 	c #A7915E",
"O 	c #312D22",
"P 	c #786546",
"Q 	c #907655",
"R 	c #937658",
"S 	c #846750",
"T 	c #7A5D4B",
"U 	c #7A5C4B",
"V 	c #795B4B",
"W 	c #8F7554",
"X 	c #AD9562",
"Y 	c #776545",
"Z 	c #927557",
"` 	c #846650",
" .	c #866C50",
"..	c #998457",
"+.	c #968454",
"@.	c #7A6B45",
"#.	c #353023",
"$.	c #4C3B32",
"%.	c #544434",
"&.	c #605338",
"*.	c #7B6C46",
"=.	c #968354",
"-.	c #010E15",
";.	c #000B15",
">.	c #000614",
",.	c #383325",
"                                                                                                                                ",
"                                                                                                                                ",
"                                                                                                                                ",
"                                                                                                                                ",
"                                                                                                                                ",
"                                                                                                                                ",
"                                                                                                                                ",
"                                                                                                                                ",
"                                                                                                                                ",
"                                                                                                                                ",
"                                                                                                                                ",
"                                                                                                                                ",
"                                                                                                                                ",
"                                                                                                                                ",
"                                                                                                                                ",
"                                                                                                                                ",
"                                                                                                                                ",
"                                                                              . + + .                                           ",
"                                                                              @ # # @                                           ",
"                                                                          $ % & * = -   ;                                       ",
"                                                                          %   > , , >   %                                       ",
"                                                                      ;   ' ) ! ~ { ] ^ /                                       ",
"                                                                      %   ( _ ~ : { ]   <                                       ",
"                                                              ; % < < [ < } _ { { | 1 2 3 4 5 ^ 6                               ",
"                                                                      ;   7 ) ] ] 1 8 9 2   ^                                   ",
"                                                          $ % 0 ( a b b a ( 0 < $ 2 9 c d e f 2 g < / % ;                       ",
"                                                          %   h _ i { { i _ } / [ 3 2 j k l m 9 n   ^                           ",
"                                                      ;   0 h o p q r r q p o h 0 ^ ; n 9 m l 8 s b a h t   ;                   ",
"                                                      %   ( _ p : r u u r : p _ ( v < w 2 x e 1 | { { _ h   %                   ",
"                                                      <   b { r u q q q q r q i a   <     <   b { u u i a   <                   ",
"                                                      <   b { r u q q q q u r { b   < 6 ^ y 4 a { z z { b   <                   ",
"                                                      %   ( _ p : r q q q u r { b   <     %   ( _ ~ : { ]   <                   ",
"                                                      ;   0 h o p q r q q r q i a   <     ;   0 h A p i B   <                   ",
"                                                          %   ( _ p : u u : p _ (   %         %   ) _ _ )   %                   ",
"                                                          $ % C ( o p r r p o h 0   ;         $ % ' ( h 7   ;                   ",
"                          ; % < < % ;             ; % % ;     %   h _ { { _ h   %                                               ",
"                                                              $ % 0 ( b b ( 0 % $                 ; % % ;                       ",
"                      ;   7 ) D D h E 4 F 4 4 F 4 E h ( ' % $                                                                   ",
"                      %   h _ { { _ h   %     %   ) _ _ )   %     ; % < < % ;                                                   ",
"                      %   ( G H I J K e x e e L e M N ~ ! > O % $                                                               ",
"                      ;   E ) P Q R S T U T T V T W X : ~ _ (   %                                                               ",
"                      ;   E ) Y W Z ` T U T T U T  ...{ { +.@.) #.  ;                                                           ",
"                      %   ( G H I J K e x e e $.e %.&.a D *.=._ >   %                                                           ",
"                      %   ( _ ~ : { ]   <             %   ) _ _ )   %                                                           ",
"                      ;   ' ) ! ~ { b 4 y 4 4 4 4 -.;.>.< #.> ) ,.  ;                                                           ",
"                          %   ) _ _ )   %                                                                                       ",
"                          $ % ' ( h 7   ;                 ; % % ;                                                               ",
"                                                                                                                                ",
"                              ; % % ;                                                                                           ",
"                                                                                                                                ",
"                                                                                                                                ",
"                                                                                                                                ",
"                                                                                                                                ",
"                                                                                                                                ",
"                                                                                                                                ",
"                                                                                                                                ",
"                                                                                                                                ",
"                                                                                                                                ",
"                                                                                                                                ",
"                                                                                                                                ",
"                                                                                                                                ",
"                                                                                                                                ",
"                                                                                                                                ",
"                                                                                                                                "};
