/* XPM */
static char * floor2_xpm[] = {
"64 64 23 1",
" 	c #0C1317",
".	c #0B1317",
"+	c #0A1217",
"@	c #141718",
"#	c #201D1A",
"$	c #25201B",
"%	c #342A1F",
"&	c #3C2F22",
"*	c #3C3022",
"=	c #24201B",
"-	c #2F271E",
";	c #3E3123",
">	c #453625",
",	c #131618",
"'	c #433524",
")	c #463625",
"!	c #3F3223",
"~	c #091217",
"{	c #30271E",
"]	c #211D1A",
"^	c #1F1D1A",
"/	c #151718",
"(	c #3F3123",
"                                                                ",
"                                                                ",
"                                                                ",
"                                                                ",
"                                                                ",
"                                                                ",
"                                                                ",
"                                                                ",
"                                                                ",
"                                                                ",
"                                                                ",
"                                                                ",
"                                                                ",
"                                                                ",
"                                                                ",
"                                                                ",
"                                                                ",
"                                                                ",
"                                                                ",
"                                                                ",
"                                                                ",
"                            .++++.                              ",
"                                                                ",
"                        .++@#$$$$#@..                           ",
"                         . #%&**&%# .                           ",
"                     ..@#=$-;>>>>;-#,..                         ",
"                     . #%&*;'>>>>';%# .                         ",
"                     @#-;>>>>>>>>>>;-#@                         ",
"                   . #%;'>>>>>>>>>>';%# .                       ",
"                   + $&>>>>>>>>>>>>>>&$ +                       ",
"                   + $*>>>>>>>>>>>>>>*$ +                       ",
"                   + $&>>>>>>>>>>>>)>&$ +                       ",
"                   + $&>>>>>>>>>>>>>>&$ +                       ",
"                   + $*>>>>>>>>>>';!'*$ ~.                      ",
"                   + $&>>>>>>>>>>;-{;&$ +                       ",
"                   . #%;'>>>>>>';%#]%%#@^#@..                   ",
"                     @#-;>>>>>>;-#,@#^/]%%] .                   ",
"                     . #%&*&&*&%# .  @#{;({]@                   ",
"                     ..@#$$$$$$#@..+.^%(''(%# .                 ",
"                                   + $*>)';%# .                 ",
"                        .++++++.   + $*>>({]@                   ",
"                                   . #%**%# .                   ",
"                                     /#$$#@..                   ",
"                                                                ",
"                                      .++.                      ",
"                                                                ",
"                                                                ",
"                                                                ",
"                                                                ",
"                                                                ",
"                                                                ",
"                                                                ",
"                                                                ",
"                                                                ",
"                                                                ",
"                                                                ",
"                                                                ",
"                                                                ",
"                                                                ",
"                                                                ",
"                                                                ",
"                                                                ",
"                                                                ",
"                                                                "};
