/* XPM */
static char * hero_xpm[] = {
"64 64 423 2",
"  	c None",
". 	c #FAE898",
"+ 	c #FAE998",
"@ 	c #A5B5D4",
"# 	c #FAE498",
"$ 	c #FADE99",
"% 	c #FAE598",
"& 	c #FADD99",
"* 	c #FBC99B",
"= 	c #FBC89B",
"- 	c #FBDA99",
"; 	c #FBBC9C",
"> 	c #FCB69C",
", 	c #FBCE9A",
"' 	c #FBE897",
") 	c #FBD999",
"! 	c #FBBB9C",
"~ 	c #FCAC9D",
"{ 	c #A3B4D5",
"] 	c #FAE599",
"^ 	c #FBDE9A",
"/ 	c #FCCF9B",
"( 	c #FCB79C",
"_ 	c #FCA89D",
": 	c #FDA89E",
"< 	c #FDB79D",
"[ 	c #F4E49E",
"} 	c #FCAD9D",
"| 	c #FCA79D",
"1 	c #EBDFA7",
"2 	c #C6C7C3",
"3 	c #F2D694",
"4 	c #E4AE8C",
"5 	c #E5988E",
"6 	c #F4A198",
"7 	c #F4A398",
"8 	c #DB9088",
"9 	c #DB9188",
"0 	c #EBDEA7",
"a 	c #E3CE8A",
"b 	c #B1926C",
"c 	c #B3756E",
"d 	c #E4978E",
"e 	c #B3766E",
"f 	c #885653",
"g 	c #885752",
"h 	c #B0916B",
"i 	c #E4CF8A",
"j 	c #FBE999",
"k 	c #F4E49F",
"l 	c #B1936B",
"m 	c #885753",
"n 	c #885952",
"o 	c #B0926B",
"p 	c #FCBC9C",
"q 	c #FDA99D",
"r 	c #F0E096",
"s 	c #FBDA9A",
"t 	c #FCBD9C",
"u 	c #FDA99E",
"v 	c #FBE998",
"w 	c #E2D594",
"x 	c #9DA18A",
"y 	c #3B6983",
"z 	c #F1E39D",
"A 	c #F3D795",
"B 	c #E6B190",
"C 	c #E69A92",
"D 	c #F5A399",
"E 	c #F5A299",
"F 	c #E59991",
"G 	c #E4AF90",
"H 	c #F2D695",
"I 	c #FCE997",
"J 	c #FBE997",
"K 	c #E5D793",
"L 	c #B6B38C",
"M 	c #A0A389",
"N 	c #3494CB",
"O 	c #9EB6BD",
"P 	c #E2DAA5",
"Q 	c #E3D08D",
"R 	c #B39876",
"S 	c #B27B79",
"T 	c #B19777",
"U 	c #F2E297",
"V 	c #E4D694",
"W 	c #8AADC0",
"X 	c #A9BCBA",
"Y 	c #CBCDAF",
"Z 	c #C0BD96",
"` 	c #7B7E6D",
" .	c #7A5D61",
"..	c #C0837F",
"+.	c #DE958E",
"@.	c #DE968E",
"#.	c #CA9084",
"$.	c #A58A72",
"%.	c #B2A875",
"&.	c #E4D58C",
"*.	c #F4E49C",
"=.	c #E6DCA4",
"-.	c #DCD6A7",
";.	c #8BAEC0",
">.	c #C6CAB0",
",.	c #A9BBB9",
"'.	c #7B9BAA",
").	c #496778",
"!.	c #494652",
"~.	c #785A5F",
"{.	c #8A6468",
"].	c #8C6668",
"^.	c #A48A71",
"/.	c #C9B881",
"(.	c #E4D48C",
"_.	c #F3E294",
":.	c #E4DBA3",
"<.	c #B4C0B6",
"[.	c #8FAFBF",
"}.	c #8DAEC0",
"|.	c #90AFBF",
"1.	c #91B0C0",
"2.	c #91B0BF",
"3.	c #DBD6A8",
"4.	c #DCD4A1",
"5.	c #90A7AD",
"6.	c #2A76A1",
"7.	c #0D5273",
"8.	c #17394A",
"9.	c #173848",
"0.	c #003349",
"a.	c #8B8766",
"b.	c #DBCD89",
"c.	c #C2C8B1",
"d.	c #7EA8C3",
"e.	c #2E93CB",
"f.	c #3495CC",
"g.	c #DCD092",
"h.	c #8D9384",
"i.	c #135373",
"j.	c #003F5B",
"k.	c #12384A",
"l.	c #043748",
"m.	c #003047",
"n.	c #003648",
"o.	c #8B8765",
"p.	c #DCCD89",
"q.	c #B5C2B7",
"r.	c #519AC9",
"s.	c #2C93CB",
"t.	c #2992CC",
"u.	c #A0B8BD",
"v.	c #E3DAA4",
"w.	c #DCCD88",
"x.	c #8D8865",
"y.	c #DDD7A7",
"z.	c #92B1C0",
"A.	c #2B93CC",
"B.	c #3590C8",
"C.	c #3789C1",
"D.	c #3884BD",
"E.	c #F1E29D",
"F.	c #DBCC89",
"G.	c #8C8765",
"H.	c #003248",
"I.	c #90B0C0",
"J.	c #3C71AE",
"K.	c #3F60A1",
"L.	c #D4CEA5",
"M.	c #C1BD96",
"N.	c #7B7F6D",
"O.	c #043448",
"P.	c #043549",
"Q.	c #7C7964",
"R.	c #C1B586",
"S.	c #C3BDA1",
"T.	c #829DB4",
"U.	c #3383BE",
"V.	c #3A7CB6",
"W.	c #3D6BA9",
"X.	c #3E66A6",
"Y.	c #42408E",
"Z.	c #6575A1",
"`.	c #83A0B6",
" +	c #7D9BAB",
".+	c #506B79",
"++	c #113647",
"@+	c #113749",
"#+	c #525863",
"$+	c #807A83",
"%+	c #838096",
"&+	c #5F6D9E",
"*+	c #3D60A2",
"=+	c #3788C0",
"-+	c #358FC7",
";+	c #41428F",
">+	c #3F61A3",
",+	c #3885BE",
"'+	c #2E84B5",
")+	c #205D7D",
"!+	c #163646",
"~+	c #163848",
"{+	c #26466A",
"]+	c #375992",
"^+	c #3F61A2",
"/+	c #3F60A2",
"(+	c #42428F",
"_+	c #3D60A3",
":+	c #2783B5",
"<+	c #1D5D7E",
"[+	c #173747",
"}+	c #173847",
"|+	c #205477",
"1+	c #2B75A9",
"2+	c #3684BE",
"3+	c #714278",
"4+	c #614181",
"5+	c #4E428B",
"6+	c #405A9E",
"7+	c #3A78B3",
"8+	c #337CB0",
"9+	c #286992",
"0+	c #1F5573",
"a+	c #1A435A",
"b+	c #173849",
"c+	c #1F5472",
"d+	c #3088BB",
"e+	c #3390C6",
"f+	c #3394CB",
"g+	c #3295CC",
"h+	c #3294CC",
"i+	c #A84111",
"j+	c #A3412D",
"k+	c #994147",
"l+	c #864164",
"m+	c #614282",
"n+	c #414B94",
"o+	c #3E599D",
"p+	c #3B6CA8",
"q+	c #1E5573",
"r+	c #276F97",
"s+	c #3089BC",
"t+	c #A94109",
"u+	c #96414E",
"v+	c #69427D",
"w+	c #404290",
"x+	c #3E61A3",
"y+	c #3685BE",
"z+	c #2984B5",
"A+	c #135D7F",
"B+	c #00394A",
"C+	c #003747",
"D+	c #0A394A",
"E+	c #1A5D7E",
"F+	c #2B84B5",
"G+	c #4490C5",
"H+	c #5B89B9",
"I+	c #6684B0",
"J+	c #3195CC",
"K+	c #A94107",
"L+	c #A8410C",
"M+	c #96414D",
"N+	c #6A427D",
"O+	c #40418F",
"P+	c #215D7F",
"Q+	c #1D5C7D",
"R+	c #2E84B4",
"S+	c #5B88B8",
"T+	c #847190",
"U+	c #965E6D",
"V+	c #A83F00",
"W+	c #A83F02",
"X+	c #A8400C",
"Y+	c #A9410B",
"Z+	c #41408E",
"`+	c #40408F",
" @	c #4F5E9B",
".@	c #5F7AAA",
"+@	c #72779D",
"@@	c #86586D",
"#@	c #903F3F",
"$@	c #903E3C",
"%@	c #853D3D",
"&@	c #6E3C40",
"*@	c #5F566E",
"=@	c #63769D",
"-@	c #757BA2",
";@	c #8A6B85",
">@	c #90657A",
",@	c #3095CC",
"'@	c #4391C6",
")@	c #5A89B9",
"!@	c #6485B2",
"~@	c #6484B1",
"{@	c #A8410F",
"]@	c #905E72",
"^@	c #AC5A62",
"/@	c #CF4F42",
"(@	c #E04824",
"_@	c #E04822",
":@	c #CF4624",
"<@	c #AB4228",
"[@	c #944942",
"}@	c #935963",
"|@	c #8A6B84",
"1@	c #747CA3",
"2@	c #5D87B7",
"3@	c #478FC4",
"4@	c #83718F",
"5@	c #95606F",
"6@	c #955F6E",
"7@	c #A83E00",
"8@	c #A8503E",
"9@	c #A76666",
"0@	c #A76667",
"a@	c #A85141",
"b@	c #8F667B",
"c@	c #944841",
"d@	c #84708F",
"e@	c #7A779B",
"f@	c #995A62",
"g@	c #A94003",
"h@	c #A68FA1",
"i@	c #A68FA2",
"j@	c #A76767",
"k@	c #4790C4",
"l@	c #5D88B7",
"m@	c #86586C",
"n@	c #60556C",
"o@	c #4491C6",
"p@	c #9A5960",
"q@	c #A44A3A",
"r@	c #A93F00",
"s@	c #A77075",
"t@	c #A7808C",
"u@	c #A695AA",
"v@	c #A692A6",
"w@	c #A76D71",
"x@	c #215C7D",
"y@	c #A93E00",
"z@	c #A6A1BA",
"A@	c #A696AB",
"B@	c #A7808D",
"C@	c #A76D72",
"D@	c #3395CC",
"E@	c #135C7E",
"F@	c #1C5C7E",
"G@	c #AA3D00",
"H@	c #A8410D",
"I@	c #A6A0B9",
"J@	c #A34B3F",
"K@	c #DEF9FC",
"L@	c #DEFAFC",
"M@	c #D1E9F2",
"N@	c #B6CADF",
"O@	c #A5B6D5",
"P@	c #6C80AB",
"Q@	c #995A64",
"R@	c #DBF5FA",
"S@	c #D4EDF4",
"T@	c #C6DDEB",
"U@	c #B2C4DC",
"V@	c #378AC2",
"W@	c #3591C8",
"X@	c #215D7E",
"Y@	c #5C88B7",
"Z@	c #8F657B",
"`@	c #BACFE2",
" #	c #B2C5DD",
".#	c #AABBD7",
"+#	c #3C71AF",
"@#	c #4690C4",
"##	c #DBF5F9",
"$#	c #D4EEF5",
"%#	c #D1EAF2",
"&#	c #3B77B3",
"*#	c #3277A9",
"=#	c #235678",
"-#	c #163847",
";#	c #215C7E",
">#	c #C2D8E7",
",#	c #A3B3D3",
"'#	c #A4B3D3",
")#	c #424B94",
"!#	c #40599D",
"~#	c #375891",
"{#	c #424290",
"]#	c #3A4082",
"^#	c #273C62",
"/#	c #163949",
"(#	c #1F5675",
"_#	c #2D7FAF",
":#	c #A4B4D4",
"<#	c #42418E",
"[#	c #3A3F81",
"}#	c #283B62",
"|#	c #173949",
"1#	c #1A455C",
"2#	c #3294CB",
"3#	c #433B7F",
"4#	c #3B3B74",
"5#	c #283A5C",
"6#	c #16394A",
"7#	c #3495CD",
"8#	c #462C59",
"9#	c #3D3056",
"0#	c #29364E",
"a#	c #472138",
"b#	c #41273C",
"c#	c #333042",
"d#	c #263547",
"e#	c #1D3849",
"f#	c #6584B1",
"g#	c #472036",
"h#	c #452338",
"i#	c #41273B",
"j#	c #3C2A3E",
"k#	c #955F6F",
"l#	c #D2EBF3",
"m#	c #C7DDEB",
"n#	c #C0D5E6",
"o#	c #A9BAD7",
"p#	c #B7CAE0",
"                                                                                                                                ",
"                                                                                                                                ",
"                                                                                                                                ",
"                                                                                                                                ",
"                                                                    . . . . . . . .                                             ",
"                                                                    + . . . . . . .                                             ",
"                                                                . . . . . . . . . . . .                 @ @                     ",
"                                                                . # $ $ % . . . . . . .                 @ @                     ",
"                                                            . + . & * = & . . . . . . . . .         @ @                         ",
"                                                            . + . - ; > , $ % . . . . . . '         @ @                         ",
"                                                            . + . ) ! ~ > = $ . . . . . . '     { @                             ",
"                                                            . ] ^ / ( _ : < / ^ ] . . . . [     { @                             ",
"                                                            . $ * ( } _ | ~ > = $ . . ' . 1 2 @                                 ",
"                                                            . 3 4 5 6 7 5 8 9 4 3 . + ' . 0 2 @                                 ",
"                                                            . a b c d 5 e f g h i . j . . k                                     ",
"                                                            . a l e d 5 e m n o i . j . . .                                     ",
"                                                            . 3 4 5 6 7 5 8 9 4 3 . + . . .                                     ",
"                                                            . - p q | _ _ | q p - . + . . r                                     ",
"                                                            . s t u | _ u : u p s . + v . w x y                                 ",
"                                                            z A B C D u u E F G H . v I J K L M                                 ",
"                                                        N O P Q R S F q q F S T Q . v . . U V w r .                             ",
"                                                        W X Y Z `  ...+.@.#.$.%.&.*.=.-.-.-.-.-.-.-.                            ",
"                                                    N ;.>.Y ,.'.).!.~.{.].^./.(._.:.<.[.}.|.1.2.2.2.                            ",
"                                                    N 2.3.4.5.6.7.8.9.0.8.a.b.*.=.c.d.N e.N N N N f.                            ",
"                                                    N 1.-.g.h.i.j.k.l.m.n.o.p.=.q.d.r.s.t.s.s.s.s.s.                            ",
"                                                    f.u.v.w.x.8.0.8.8.0.8.x.p.y.z.f.A.f.f.f.f.B.C.D.                            ",
"                                                        E.F.G.9.H.8.8.0.8.x.b.-.I.e.t.N N N N C.J.K.                            ",
"                                                        L.M.N.8.O.8.8.P.8.Q.R.S.T.D.U.D.D.D.D.V.W.X.                            ",
"                                                    Y.Z.`. +.+8.++8.8.@+8.#+$+%+&+K.*+K.K.K.K.W.V.=+-+N                         ",
"                                                    ;+>+,+'+)+9.!+8.8.~+8.{+]+^+^+K.K./+^+K./+J.C.N N N                         ",
"                                                (+Y.(+_+U.:+<+8.[+8.8.}+8.|+1+U.2+D.D.D.D.D.D.C.B.N N N                         ",
"                                                3+4+5+6+7+8+9+0+a+8.b+9.8.c+6.d+e+f+g+h+f+N N N N N N N                         ",
"                                            i+j+k+l+m+n+o+p+8+6.q+8.9.b+8.a+0+r+s+f.f.f.    f.N N N N N N N                     ",
"                                            i+t+i+u+v+Y.w+x+y+z+A+B+C+B+B+C+D+E+F+G+H+I+    f+N N f+h+J+J+J+                    ",
"                                        i+i+i+K+L+M+N+Y.O+^+,+'+P+8.[+8.8.!+9.Q+R+S+T+U+    J+N N N N N N N                     ",
"                                        V+W+X+Y+i+u+v+Z+`+ @.@+@@@#@$@#@#@%@&@*@=@-@;@>@    ,@h+h+'@)@!@~@!@                    ",
"                                    i+i+i+i+i+{@            ]@^@/@(@_@(@(@:@<@[@}@|@1@2@3@N     N )@4@5@6@5@                    ",
"                                    7@8@9@0@a@i+            b@^@/@(@_@(@(@:@<@c@}@d@)@N h+f+    ~@e@f@i+g@i+                    ",
"                                    i+0@h@i@j@i+        f.k@l@+@m@#@$@#@#@%@&@n@=@S+o@h+h+J+    U+p@q@r@r@r@                    ",
"                                    s@t@u@v@w@i+        N f.N '+x@8.[+8.8.[+8.x@'+N f.N N ,@    y@i+i+i+i+i+                    ",
"                                    z@A@B@C@            N D@h+z+E@B+C+B+B+C+D+F@F+h+D@N N ,@    G@g@H@i+i+i+                    ",
"                                    @ I@s@i+            f.f.N '+x@8.[+8.8.[+8.x@'+N f.N N ,@    J@i+H@i+i+i+                    ",
"        K@K@    K@K@K@K@K@L@K@M@N@O@                    N f.N '+x@8.[+8.8.[+8.x@'+N f.N N J+N P@Q@i+g@i+i+i+                    ",
"        K@K@    L@K@K@K@L@R@S@T@U@@                     ,+V@W@'+X@8.[+8.8.[+8.x@'+N f.N N h+N Y@Z@i+r@i+i+i+                    ",
"            K@K@K@K@        `@ #.#@                     K.+#C.'+X@8.[+8.8.[+8.x@'+N f.N N f+N @#    r@i+                        ",
"            K@##$#%#        @ @ @ @                     (+6+&#*#=#8.-#8.8.[+8.;#'+N f.N N N N J+    G@i+                        ",
"        K@L@K@$#>#N@    ,#'#    @ @                     Y.)#!#~#{+8.~+8.8.[+8.x@'+N f.N N N N h+                                ",
"        K@K@K@%#N@@     @ @     @ @                     (+{#(+]#^#8./#8.8.9.8.(#_#N f.N N N N N                                 ",
"        K@K@        :#@         @ @                         <#[#}#8./#8.8.|#8.1#    f.N N N N N N 2#                            ",
"        K@K@        @ @         @ @                         3#4#5#6#/#8.8.8.8.[+    7#f+h+J+J+J+J+J+                            ",
"        K@L@    ,#@     @ @     @ @                         8#9#0#8.6#8.8.8.8.9.        N N N N N N                             ",
"        L@R@    '#@     @ @     @ @                         a#b#c#d#e#8.8.8.8.8.        f#f#~@!@!@!@                            ",
"        K@S@`@@             @ @                             g#h#i#j#                    k#5@5@5@5@5@                            ",
"        l#m# #@             @ @                             a#a#a#a#                    i+i+i+i+i+i+                            ",
"    K@l#n#U@o#@ @ @ @ @ @ @     @ @                         a#a#a#a#                        r@r@r@r@                            ",
"    M@T@ #@ :#@ @ @ @ @ @ @     @ @                         a#a#a#a#                        i+i+i+i+                            ",
"    p# #o#:#                                            a#a#a#a#a#a#                        i+i+i+i+                            ",
"    @ @ @ @                                             a#a#a#a#a#a#                        i+i+i+i+                            ",
"                                                                                            i+i+i+i+                            ",
"                                                                                            i+i+i+i+                            ",
"                                                                                                                                ",
"                                                                                                                                ",
"                                                                                                                                ",
"                                                                                                                                "};
