/* XPM */
static char * monster_xpm[] = {
"64 64 154 2",
"  	c None",
". 	c #DEF9FC",
"+ 	c #B598B2",
"@ 	c #AD91AA",
"# 	c #AC90A9",
"$ 	c #AC91A9",
"% 	c #9F869D",
"& 	c #998096",
"* 	c #AB90A8",
"= 	c #8D768A",
"- 	c #DFFAFD",
"; 	c #C2DADD",
"> 	c #CAE3E6",
", 	c #D8F2F5",
"' 	c #D7F1F4",
") 	c #CAE3E5",
"! 	c #C2DADC",
"~ 	c #79888A",
"{ 	c #9CAFB1",
"] 	c #C9E2E5",
"^ 	c #778688",
"/ 	c #A98EA6",
"( 	c #977E94",
"_ 	c #000000",
": 	c #667375",
"< 	c #A8BDC0",
"[ 	c #CBE4E7",
"} 	c #D9F3F6",
"| 	c #C3DBDD",
"1 	c #788889",
"2 	c #788789",
"3 	c #91798E",
"4 	c #373F40",
"5 	c #687577",
"6 	c #9DB1B3",
"7 	c #7A8A8C",
"8 	c #3D4647",
"9 	c #677576",
"0 	c #A8BCBF",
"a 	c #B2C8CA",
"b 	c #91A4A6",
"c 	c #90A2A4",
"d 	c #B3C9CB",
"e 	c #A9BEC0",
"f 	c #687677",
"g 	c #394141",
"h 	c #91A3A5",
"i 	c #B3C9CC",
"j 	c #9DB0B2",
"k 	c #C5DDDF",
"l 	c #96A9AB",
"m 	c #79898A",
"n 	c #9DB0B3",
"o 	c #DFFBFE",
"p 	c #C1D9DB",
"q 	c #C5DDE0",
"r 	c #C1D9DC",
"s 	c #E0FBFE",
"t 	c #C1D8DB",
"u 	c #CAE2E5",
"v 	c #ABBFC2",
"w 	c #788085",
"x 	c #7E868B",
"y 	c #BDD3D6",
"z 	c #9EB2B4",
"A 	c #798085",
"B 	c #796E7B",
"C 	c #877D8B",
"D 	c #503F4D",
"E 	c #7C6477",
"F 	c #8B7387",
"G 	c #877083",
"H 	c #B597B1",
"I 	c #AB8EA7",
"J 	c #987E95",
"K 	c #8C7488",
"L 	c #ADB0BA",
"M 	c #AEB1BB",
"N 	c #D9F2F6",
"O 	c #D1E6EB",
"P 	c #D1E6EA",
"Q 	c #D8F1F5",
"R 	c #C1B9C9",
"S 	c #BBB4C4",
"T 	c #AFACB9",
"U 	c #A8A7B2",
"V 	c #DAF3F6",
"W 	c #CCDFE4",
"X 	c #CEE2E7",
"Y 	c #DEFAFD",
"Z 	c #D4E5EC",
"` 	c #D2E4EA",
" .	c #CFE2E7",
"..	c #CDE0E5",
"+.	c #D2E7EC",
"@.	c #B9C2CA",
"#.	c #A8A7B3",
"$.	c #A7A6B1",
"%.	c #A7A6B2",
"&.	c #B5BCC5",
"*.	c #CEE3E7",
"=.	c #D5E6ED",
"-.	c #D4E4EB",
";.	c #B8C2CA",
">.	c #A8A6B2",
",.	c #D9F1F5",
"'.	c #D0E5EA",
").	c #C8D9DF",
"!.	c #D5E7ED",
"~.	c #C8C9D6",
"{.	c #C1B9CA",
"].	c #C2B9CA",
"^.	c #8D7589",
"/.	c #CEE1E6",
"(.	c #ADAFB9",
"_.	c #A29DAA",
":.	c #968898",
"<.	c #C9D6DE",
"[.	c #C4C3D1",
"}.	c #C1B8C9",
"|.	c #B5B9C3",
"1.	c #D4E5EB",
"2.	c #DFFBFD",
"3.	c #B8C1C9",
"4.	c #D1E7EB",
"5.	c #D8EFF2",
"6.	c #CFE2E4",
"7.	c #CDDEE0",
"8.	c #D7F0F3",
"9.	c #D8F1F4",
"0.	c #A79A9A",
"a.	c #AFAAAB",
"b.	c #CCDCDE",
"c.	c #988C9C",
"d.	c #812611",
"e.	c #997C7A",
"f.	c #BABEC0",
"g.	c #CBDADC",
"h.	c #8B7388",
"i.	c #A8A8B3",
"j.	c #7F1200",
"k.	c #8A504A",
"l.	c #997B7A",
"m.	c #A18D8C",
"n.	c #8B7186",
"o.	c #C8DADF",
"p.	c #978999",
"q.	c #A39FAB",
"r.	c #968798",
"s.	c #CEE3E8",
"t.	c #8C7489",
"u.	c #CCE0E5",
"v.	c #C7D8DE",
"w.	c #A39EAB",
"                                                                                                                                ",
"                                                                                                                                ",
"                                                                                                                                ",
"                                                                                                                                ",
"                                            . . . . . . . .                                                                     ",
"                                            . . . . . . . .                                                                     ",
"                        + +             . . . . . . . . . . . .                                                                 ",
"                        @ #             . . . . . . . . . . . .                                                                 ",
"                    + $ % &         . . . . . . . . . . . . . . . .                                                             ",
"                    + * & =         - - . . . . - - - - . . . . . .                                                             ",
"                    + * & =         . . . . . . . . . . . . . . . .                                                             ",
"                    + # & =         ; > , - - ' ) ! ! ) ' . . . . .                                                             ",
"                    + * & =         ~ { ] - - ) { ^ ^ { ) . - . . .                                                             ",
"                    + / ( =         _ : < [ } | 1 _ _ 2 | - - . . .                                                             ",
"                        3 =         _ 4 5 6 > ! ~ _ _ ^ ! . - .                                                                 ",
"                        3 =         7 5 8 9 0 a b 2 2 c d > , .                                                                 ",
"                    + / ( =         ; e f g : h i | | a h j ] .                                                                 ",
"                    + * & =         . k l 2 m n > - o ! ~ 7 p .                                                                 ",
"                    + # & =             q r p ] , s - r 2 ~ t .                                                                 ",
"                    + * & =             . ' ] u ' , u v w x y .                                                                 ",
"                    + * & =             - > z z ] ) n A B C                                                                     ",
"                    + * & =             . p 7 7 t r ~ D E F                                                                     ",
"                    + * & =                             G =                                                                     ",
"                    H I J K                             L M                                                                     ",
"                    + * & =                     - - - N O P Q . . .             . . . .                                         ",
"                    R S T U                     . . . V O W W W W X             . . Y -                                         ",
"                    Z `  ...        = F     - .     . +.@.#.$.%.U &.*..         . . . .                                         ",
"                    =.-.-.-.        = K     o .     . +.;.#.%.>.U &.X .         . ,.'.).                                        ",
"                . !.~.{.R ].        = ^.        . . . V O W W W W /.    . .         (._.:.=                                     ",
"                W <.[.}.}.}.        = ^.        . . . V O W W '.Q .     . .         = = = =                                     ",
"                U |.<.-.1.-.        = K     o .     . +.;.U %.L     2..                 ^.=                                     ",
"                U 3.+.- - .         ^.K     o .     . +.3.U %.L     - .                 = =                                     ",
"                W 4.V Y     . o     K ^.        . . . V O W W '.Q .     . .                 = =                                 ",
"                . 5.6.7.    - 8.    K =         - - . . . 9.'.'.9..     . .                 K K                                 ",
"                    0.a.b.-     c.= ^.=                     M M                             = =                                 ",
"                    d.e.f.g.    h.= = =                     i.i.                            $.$.                                ",
"                    j.k.l.m.                    F n.        W W         . .                 ....                                ",
"                    d.d.d.d.                    = =         ).).        o.*.                . .                                 ",
"                                            = = = = = ^.= p.q.q.p.^.^.r.q.&.s..             - -                                 ",
"                                            = = = = = = = = = = = = = K = U ...             . .                                 ",
"                                            = = = = = =             = h.t.%....             . .                                 ",
"                                            = = = = = =             = F K $....             . .                                 ",
"                                                                                    . . . . . . . .                             ",
"                                                                                    . . . . . . . .                             ",
"                                                = =                     o -             . .     . .                             ",
"                                                = =                     . .             . .     . .                             ",
"                                            = =                         . .             . .                                     ",
"                                            = =                         - -             . .                                     ",
"                                            = =                         . .                                                     ",
"                                            = =                         u.u.                                                    ",
"                                                = =                     $.$.                                                    ",
"                                                = =                     = =                                                     ",
"                                                    = =                                                                         ",
"                                                    = =                                                                         ",
"                                        = = = = = = = =                     = =                                                 ",
"                                        = = = = = = = =                     p.p.                                                ",
"                                                                        . v.w.w.v..                                             ",
"                                                                        . W U U W .                                             ",
"                                                                                                                                ",
"                                                                                                                                ",
"                                                                                                                                ",
"                                                                                                                                ",
"                                                                                                                                ",
"                                                                                                                                "};
