/* XPM */
static char * stairs_xpm[] = {
"64 64 156 2",
"  	c #6F5756",
". 	c #705756",
"+ 	c #6D5554",
"@ 	c #68524F",
"# 	c #654F4C",
"$ 	c #624C4B",
"% 	c #604B4A",
"& 	c #604B4B",
"* 	c #614C4B",
"= 	c #65504F",
"- 	c #6C5454",
"; 	c #69524F",
"> 	c #5B4741",
", 	c #4D3C34",
"' 	c #41322E",
") 	c #392C2B",
"! 	c #392B2B",
"~ 	c #3B2D2D",
"{ 	c #3F3231",
"] 	c #503F3E",
"^ 	c #66504D",
"/ 	c #524137",
"( 	c #3B2E1F",
"_ 	c #20180D",
": 	c #000000",
"< 	c #080808",
"[ 	c #1B1818",
"} 	c #413433",
"| 	c #624D4C",
"1 	c #524036",
"2 	c #3A2D1E",
"3 	c #1E160A",
"4 	c #030505",
"5 	c #191616",
"6 	c #403333",
"7 	c #030303",
"8 	c #0A0808",
"9 	c #0D0B0B",
"0 	c #0C0909",
"a 	c #0A0706",
"b 	c #060403",
"c 	c #020101",
"d 	c #171313",
"e 	c #1C1818",
"f 	c #1A1615",
"g 	c #171210",
"h 	c #110B08",
"i 	c #211D1D",
"j 	c #1F1B1A",
"k 	c #1C1613",
"l 	c #150F0B",
"m 	c #090504",
"n 	c #201B1A",
"o 	c #1C1614",
"p 	c #20170B",
"q 	c #3D3025",
"r 	c #272124",
"s 	c #161625",
"t 	c #151525",
"u 	c #141422",
"v 	c #100F1C",
"w 	c #0A0913",
"x 	c #030307",
"y 	c #090707",
"z 	c #161313",
"A 	c #3F332E",
"B 	c #312D3A",
"C 	c #2A2A40",
"D 	c #292941",
"E 	c #2A2A41",
"F 	c #27263C",
"G 	c #201F32",
"H 	c #171625",
"I 	c #66504C",
"J 	c #403532",
"K 	c #363243",
"L 	c #31314B",
"M 	c #2E2D46",
"N 	c #26253B",
"O 	c #1C1B2C",
"P 	c #0D0C17",
"Q 	c #070202",
"R 	c #0A0505",
"S 	c #413532",
"T 	c #31314C",
"U 	c #2E2E46",
"V 	c #27253B",
"W 	c #1D1B2C",
"X 	c #120606",
"Y 	c #180D0D",
"Z 	c #1A1515",
"` 	c #170D0D",
" .	c #060101",
"..	c #090303",
"+.	c #160808",
"@.	c #1D1111",
"#.	c #201919",
"$.	c #201A1A",
"%.	c #1C1A2C",
"&.	c #0C0B16",
"*.	c #1F1E31",
"=.	c #191929",
"-.	c #12121F",
";.	c #07070F",
">.	c #242338",
",.	c #28273D",
"'.	c #232337",
").	c #2D2D46",
"!.	c #32324C",
"~.	c #161624",
"{.	c #2B2A42",
"].	c #1B1B2C",
"^.	c #131321",
"/.	c #2C2C44",
"(.	c #232236",
"_.	c #26263C",
":.	c #090B13",
"<.	c #0A0C0D",
"[.	c #1C1919",
"}.	c #242438",
"|.	c #161925",
"1.	c #0E1214",
"2.	c #1C1A1A",
"3.	c #403432",
"4.	c #353143",
"5.	c #30304B",
"6.	c #30314B",
"7.	c #2C2C45",
"8.	c #25243B",
"9.	c #292A42",
"0.	c #181D2B",
"a.	c #0C1216",
"b.	c #1A1919",
"c.	c #32314C",
"d.	c #2B2B42",
"e.	c #1B1E2C",
"f.	c #101417",
"g.	c #1C1A1B",
"h.	c #50403E",
"i.	c #4A3E48",
"j.	c #483E4E",
"k.	c #473E4E",
"l.	c #463B4A",
"m.	c #433743",
"n.	c #453A48",
"o.	c #3F343A",
"p.	c #3C3031",
"q.	c #3F3332",
"r.	c #65504E",
"s.	c #644F52",
"t.	c #634F53",
"u.	c #634F52",
"v.	c #624E50",
"w.	c #634E51",
"x.	c #614D4E",
"y.	c #614C4C",
"                                                                                                                                ",
"              . . . . . . . . . . . . . . . . . . . . . . . . . . . . . . . . . . . . . . . . . . . . . . . . . . . .           ",
"                                                                                                                                ",
"      + @ # $ % % % % % % % % % % % % % % % % % % % % % % % % % % % % % % % % % % % % % % % % % % % % % % % % % % & * = -       ",
"      ; > , ' ) ! ) ) ) ) ) ) ) ) ) ) ) ) ) ) ) ) ) ) ) ) ) ) ) ) ) ) ) ) ) ) ) ) ) ) ) ) ) ) ) ) ) ) ) ) ) ) ) ) ~ { ] =       ",
"      ^ / ( _ : : : : : : : : : : : : : : : : : : : : : : : : : : : : : : : : : : : : : : : : : : : : : : : : : : < [ } |       ",
"      ^ 1 2 3 : : : : : : : : : : : : : : : : : : : : : : : : : : : : : : : : : : : : : : : : : : : : : : : : : : 4 5 6 |       ",
"      ^ / ( _ : : : : : : : : : : : : : : : : : : : : : : : : : : : : : : : : : : : : : : 7 8 9 9 9 9 9 9 0 a b c < [ } |       ",
"      ^ / ( _ : : : : : : : : : : : : : : : : : : : : : : : : : : : : : : : : : : : : : : 8 d [ e [ [ e [ f g h b < [ } |       ",
"      ^ / ( _ : : : : : : : : : : : : : : : : : : : : : : : : : : : : : : : : : : : : : : 9 [ i i i i i i j k l m < [ } |       ",
"      ^ / ( _ : : : : : : : : : : : : : : : : : : : : : : : : : : : : : : : : : : : : : : 9 e i i i i i i n o l m < [ } |       ",
"      ^ / ( p : : : : : : : : : : : : : : : : : : : : : : : : : : : : : : : : : : : : : : 9 e i i i i i i n o l m < [ } |       ",
"      ^ / ( _ : : : : : : : : : : : : : : : : : : : : : : : : : : : : : : : : : : : : : : 9 [ i i i i i i j k l m < [ } |       ",
"      ^ / q r s t s s s s s s s s u v w x : : : : : : : : : : : : : : : : : : : : : : : : y z [ [ [ [ e [ f g h b < [ } |       ",
"      ^ / A B C D C C C C C C E C F G H w : : : : : : : : : : : : : : : : : : : : : : : : 7 8 9 9 9 9 9 9 0 a b c < [ } |       ",
"      I / J K L L L L L L L L L L M N O P : : : : : : : : : : : : : : : : c Q R 0 9 9 9 9 9 9 0 R Q c : : : : : : < [ } |       ",
"      I / S K L T L L L L L L T L U V W P : : : : : : : : : : : : : : : : Q X Y Z [ [ [ [ [ [ Z ` X  .: : : : : : < [ } |       ",
"      I / J K L L L L L L L L L L M N O P : : : : : : : : : : : : : : : : ..+.@.#.i i i i i i #.@.+...: : : : : : < [ } |       ",
"      I / J K L L L L L L L L L L M N O P : : : : : : : : : : : : : : : : ..+.@.$.i i i i i i $.@.+...: : : : : : < [ } |       ",
"      I / J K L L L L L L L L L L M N O P : : : : : : : : : : : : : : : : ..+.@.#.i i i i i i #.@.+...: : : : : : < [ } |       ",
"      I / J K L L L L L L L L L L M N O P : : : : : : : : : : : : : : : : ..+.@.#.i i i i i i #.@.+...: : : : : : < [ } |       ",
"      I / J K L L L L L L L L L L M N O P : : : : : : : : : : : : : : : : ..+.@.$.i i i i i i $.@.+...: : : : : : < [ } |       ",
"      I / J K L L L L L L L L L L M N O P : : : : : : : : : : : : : : : : ..+.@.#.i i i i i i #.@.+...: : : : : : < [ } |       ",
"      I / J K L L L L L L L L L L M N %.&.: : : : : : : : : : : : : : : : Q X Y Z [ [ [ [ [ [ Z Y X Q : : : : : : < [ } |       ",
"      I / J K L L L L L L L L L L M N O P : : : : : : : : : : : : : : : : c Q R 0 9 9 9 9 9 9 0 R Q c : : : : : : < [ } |       ",
"      I / J K L L L L L L L L L L M N *.=.s s s s s s s s s s -.;.: : : : : : : : : : : : : : : : : : : : : : : : < [ } |       ",
"      I / J K L L L L L L L L L L M N >.,.C E C C C C C C E C '.-.: : : : : : : : : : : : : : : : : : : : : : : : < [ } |       ",
"      I / J K L L L L L L L L L L ).N N ).L L L L L L L L L L C s : : : : : : : : : : : : : : : : : : : : : : : : < [ } |       ",
"      I / J K L L L L L L L L L L ).N V M L T L L L L L L !.L E s : : : : : : : : : : : : : : : : : : : : : : : : < [ } |       ",
"      I / J K L L L L L L L L L L ).N N ).L L L L L L L L L L C s : : : : : : : : : : : : : : : : : : : : : : : : < [ } |       ",
"      I / J K L L L L L L L L L L ).N N ).L L L L L L L L L L C s : : : : : : : : : : : : : : : : : : : : : : : : < [ } |       ",
"      I / J K L L L L L L L L L L ).N N ).L L L L L L L L L L C s : : : : : : : : : : : : : : : : : : : : : : : : < [ } |       ",
"      I / J K L L L L L L L L L L ).N N ).L L L L L L L L L L C s : : : : : : : : : : : : : : : : : : : : : : : : < [ } |       ",
"      I / J K L L L L L L L L L L ).N N ).L L L L L L L L L L C s : : : : : : : : : : : : : : : : : : : : : : : : < [ } |       ",
"      I / J K L L L L L L L L L L ).N N ).L L L L L L L L L L C s : : : : : : : : : : : : : : : : : : : : : : : : < [ } |       ",
"      I / J K L L L L L L L L L L ).N N ).L L L L L L L L L L C s : : : : : : : : : : : : : : : : : : : : : : : : < [ } |       ",
"      I / J K L L L L L L L L L L ).N N ).L L L L L L L L L L C s : : : : : : : : : : : : : : : : : : : : : : : : < [ } |       ",
"      I / J K L L L L L L L L L L ).N N ).L L L L L L L L L L C s : : : : : : : : : : : : : : : : : : : : : : : : < [ } |       ",
"      I / J K L L L L L L L L L L ).N N ).L L L L L L L L L L C s : : : : : : : : : : : : : : : : : : : : : : : : < [ } |       ",
"      I / J K L L L L L L L L L L ).N N ).L L L L L L L L L L C ~.: : : : : : : : : : : : : : : : : : : : : : : : < [ } |       ",
"      I / J K L L L L L L L L L L ).N N ).L L L L L L L L L L C s : : : : : : : : : : : : : : : : : : : : : : : : < [ } |       ",
"      I / J K L L L L L L L L L L ).N N ).L L L L L L L L L L {.].v ^.s s s s s s s s s s -.;.: : : : : : : : : : < [ } |       ",
"      I / J K L L L L L L L L L L ).N N ).L L L L L L L L L L /.(.G _.C E C C C C C C E C '.-.: : : : : : : : : : < [ } |       ",
"      I / J K L L L L L L L L L L ).N N ).L L L L L L L L L L ).N N ).L L L L L L L L L L C s : : : : : : : : : : < [ } |       ",
"      I / J K L L L L L L L L L L ).N N ).L L L L L L L L L L ).V V M L T L L L L L L !.L E s : : : : : : : : : : < [ } |       ",
"      I / J K L L L L L L L L L L ).N N ).L L L L L L L L L L ).N N ).L L L L L L L L L L C s : : : : : : : : : : < [ } |       ",
"      I / J K L L L L L L L L L L ).N N ).L L L L L L L L L L ).N N ).L L L L L L L L L L C s : : : : : : : : : : < [ } |       ",
"      I / J K L L L L L L L L L L ).N N ).L L L L L L L L L L ).N N ).L L L L L L L L L L C s : : : : : : : : : : < [ } |       ",
"      I / J K L L L L L L L L L L ).N N ).L L L L L L L L L L ).N N ).L L L L L L L L L L C s : : : : : : : : : : < [ } |       ",
"      I / J K L L L L L L L L L L ).N N ).L L L L L L L L L L ).N N ).L L L L L L L L L L C s : : : : : : : : : : < [ } |       ",
"      I / J K L L L L L L L L L L ).N N ).L L L L L L L L L L ).N N ).L L L L L L L L L L C s : : : : : : : : : : < [ } |       ",
"      I / J K L L L L L L L L L L ).N N ).L L L L L L L L L L ).N N ).L L L L L L L L L L C ~.: : : : : : : : : : < [ } |       ",
"      I / J K L L L L L L L L L L ).N N ).L L L L L L L L L L ).N N ).L L L L L L L L L L C s : : : : : : : : : : < [ } |       ",
"      I / J K L L L L L L L L L L ).N N ).L L L L L L L L L L ).N N ).L L L L L L L L L L {.].v ^.s s s s s s -.:.<.[.} |       ",
"      I / J K L L L L L L L L L L ).N N ).L L L L L L L L L L ).N N ).L L L L L L L L L L /.(.G _.C E C C E C }.|.1.2.} |       ",
"      I 1 3.4.5.5.5.5.5.5.5.5.6.5.7.8.8.7.5.6.5.5.5.5.5.5.6.5.7.8.8.7.5.6.5.5.5.5.5.5.6.5.7.8.8.7.5.6.5.5.6.5.9.0.a.b.6 |       ",
"      I / J K L L L L L L L L L L ).N N ).L L L L L L L L L L ).N N ).L L L L L L L L L L ).V V M L T L L c.L d.e.f.g.} |       ",
"      ; > h.i.j.k.j.j.j.j.j.j.j.j.l.m.m.l.j.j.j.j.j.j.j.j.j.j.l.m.m.l.j.j.j.j.j.j.j.j.j.j.l.m.m.l.j.j.j.j.j.j.n.o.p.q.] =       ",
"      + @ r.s.t.t.t.t.t.t.t.t.t.t.u.v.v.u.t.t.t.t.t.t.t.t.t.t.u.v.v.u.t.t.t.t.t.t.t.t.t.t.u.v.v.u.t.t.t.t.t.t.w.x.* y.= -       ",
"                                                                                                                                ",
"                                                                                                                . . .           ",
"                                                                                                                                ",
"                                                                                                                                ",
"                                                                                                                                "};
