/* XPM */
static char * wall_medium_xpm[] = {
"64 64 442 2",
"  	c #696A6A",
". 	c #8F9282",
"+ 	c #BFC4A3",
"@ 	c #D3DAB2",
"# 	c #D4DAB3",
"$ 	c #C6CCAA",
"% 	c #ABB198",
"& 	c #8F9486",
"* 	c #777A74",
"= 	c #5C5D5D",
"- 	c #3D3C3C",
"; 	c #3E3D3D",
"> 	c #68696A",
", 	c #787B75",
"' 	c #8E9486",
") 	c #999F8E",
"! 	c #5B5C5C",
"~ 	c #55574F",
"{ 	c #868B7C",
"] 	c #5D5D5D",
"^ 	c #211D1D",
"/ 	c #1F1B1B",
"( 	c #A4A890",
"_ 	c #C4CAA7",
": 	c #D3D9B2",
"< 	c #D4DAB2",
"[ 	c #CAD0AC",
"} 	c #B6BCA0",
"| 	c #A0A591",
"1 	c #878B7F",
"2 	c #6C6E69",
"3 	c #50514F",
"4 	c #464546",
"5 	c #555555",
"6 	c #646563",
"7 	c #727570",
"8 	c #82867D",
"9 	c #929788",
"0 	c #82857C",
"a 	c #686A65",
"b 	c #434341",
"c 	c #5E6054",
"d 	c #959A85",
"e 	c #9FA590",
"f 	c #757772",
"g 	c #6C6E6C",
"h 	c #5F5F60",
"i 	c #4A494A",
"j 	c #4F5048",
"k 	c #6A6C5A",
"l 	c #767963",
"m 	c #767968",
"n 	c #777970",
"o 	c #737672",
"p 	c #6C6E6D",
"q 	c #69696A",
"r 	c #686969",
"s 	c #676869",
"t 	c #CED4AE",
"u 	c #D0D6B0",
"v 	c #C9CFAC",
"w 	c #BAC0A1",
"x 	c #9FA490",
"y 	c #84887D",
"z 	c #6B6E69",
"A 	c #464646",
"B 	c #5C5D57",
"C 	c #7F8478",
"D 	c #919788",
"E 	c #979D8C",
"F 	c #7B8074",
"G 	c #51524B",
"H 	c #6E715E",
"I 	c #ADB294",
"J 	c #D1D7B1",
"K 	c #868A7F",
"L 	c #656566",
"M 	c #5F6060",
"N 	c #7D8072",
"O 	c #A7AC8F",
"P 	c #B9BF9C",
"Q 	c #BABF9C",
"R 	c #B0B597",
"S 	c #9BA08C",
"T 	c #747672",
"U 	c #C7CDAA",
"V 	c #ABB199",
"W 	c #81847B",
"X 	c #515250",
"Y 	c #585A53",
"Z 	c #787C70",
"` 	c #8B9181",
" .	c #959B8A",
"..	c #9AA08F",
"+.	c #8A9081",
"@.	c #6E7165",
"#.	c #878B74",
"$.	c #BDC2A0",
"%.	c #8E9386",
"&.	c #777974",
"*.	c #737470",
"=.	c #86887C",
"-.	c #6C6D6C",
";.	c #737571",
">.	c #7E8178",
",.	c #898C7F",
"'.	c #787A75",
").	c #9AA08E",
"!.	c #979D8D",
"~.	c #919688",
"{.	c #5A5B59",
"].	c #6D7165",
"^.	c #8C9181",
"/.	c #949A89",
"(.	c #9FA48D",
"_.	c #C3C9A6",
":.	c #8E9385",
"<.	c #86897C",
"[.	c #ADB297",
"}.	c #C5CAA8",
"|.	c #CFD5AF",
"1.	c #BAC0A2",
"2.	c #9DA28E",
"3.	c #B4B99C",
"4.	c #858A7F",
"5.	c #BCC2A3",
"6.	c #A6AC96",
"7.	c #8F9487",
"8.	c #5B5B5C",
"9.	c #3A383A",
"0.	c #54564E",
"a.	c #858A7B",
"b.	c #989E8E",
"c.	c #969B8C",
"d.	c #8D9285",
"e.	c #D1D7B0",
"f.	c #888C81",
"g.	c #7D8179",
"h.	c #979B88",
"i.	c #C1C6A5",
"j.	c #7E8279",
"k.	c #898D82",
"l.	c #9DA390",
"m.	c #3B3A3B",
"n.	c #55584F",
"o.	c #777A75",
"p.	c #A0A590",
"q.	c #888D81",
"r.	c #A4AA93",
"s.	c #C5CBA8",
"t.	c #969C8C",
"u.	c #BABFA1",
"v.	c #898D81",
"w.	c #A7AD96",
"x.	c #6C6E6A",
"y.	c #63645E",
"z.	c #6F7261",
"A.	c #868A74",
"B.	c #85897F",
"C.	c #BCC2A4",
"D.	c #8D9284",
"E.	c #70726C",
"F.	c #6C6F6A",
"G.	c #83877C",
"H.	c #6B6D69",
"I.	c #707261",
"J.	c #A4A88B",
"K.	c #C3C9A7",
"L.	c #9EA491",
"M.	c #888D7F",
"N.	c #5F615A",
"O.	c #8D9385",
"P.	c #868B80",
"Q.	c #595A5B",
"R.	c #747762",
"S.	c #B9BE9B",
"T.	c #747772",
"U.	c #7E8179",
"V.	c #909687",
"W.	c #B9BEA0",
"X.	c #9AA08A",
"Y.	c #858A7C",
"Z.	c #8B9081",
"`.	c #A7AC96",
" +	c #999E89",
".+	c #74786B",
"++	c #494A43",
"@+	c #3C3B3C",
"#+	c #6D6E6D",
"$+	c #59595B",
"%+	c #D5DBB3",
"&+	c #81857C",
"*+	c #9A9F8A",
"=+	c #737768",
"-+	c #55574E",
";+	c #6D7065",
">+	c #4C4D45",
",+	c #32312D",
"'+	c #5C5C5C",
")+	c #737570",
"!+	c #646566",
"~+	c #5E5E5F",
"{+	c #62635D",
"]+	c #707362",
"^+	c #969A7E",
"/+	c #C1C6A2",
"(+	c #8C9183",
"_+	c #868C7D",
":+	c #75796C",
"<+	c #4B4C45",
"[+	c #191215",
"}+	c #757A6D",
"|+	c #959B8B",
"1+	c #949984",
"2+	c #818676",
"3+	c #797D6A",
"4+	c #5F6154",
"5+	c #5A5C57",
"6+	c #636563",
"7+	c #BEC3A3",
"8+	c #C0C6A2",
"9+	c #CDD3AD",
"0+	c #70736C",
"a+	c #5F625A",
"b+	c #54574E",
"c+	c #33322E",
"d+	c #1B1618",
"e+	c #31302D",
"f+	c #4C4E46",
"g+	c #6C7064",
"h+	c #6D705D",
"i+	c #7A7E6A",
"j+	c #A6AA8C",
"k+	c #ADB394",
"l+	c #969B86",
"m+	c #71736F",
"n+	c #828576",
"o+	c #686A5F",
"p+	c #808470",
"q+	c #B1B698",
"r+	c #51514F",
"s+	c #444442",
"t+	c #4F504A",
"u+	c #4E504A",
"v+	c #575953",
"w+	c #898E7F",
"x+	c #82867A",
"y+	c #686B61",
"z+	c #5D5F53",
"A+	c #6E705E",
"B+	c #B7BDA0",
"C+	c #CFD4AF",
"D+	c #B2B79A",
"E+	c #979C87",
"F+	c #909684",
"G+	c #A2A892",
"H+	c #7C8074",
"I+	c #878C7D",
"J+	c #7D8175",
"K+	c #696B66",
"L+	c #60625B",
"M+	c #6F726C",
"N+	c #7A7D76",
"O+	c #81867A",
"P+	c #CED3AD",
"Q+	c #CAD0AD",
"R+	c #989E8D",
"S+	c #BBC0A2",
"T+	c #7C8175",
"U+	c #4E5049",
"V+	c #979C8C",
"W+	c #8C9184",
"X+	c #7F8377",
"Y+	c #56584F",
"Z+	c #646564",
"`+	c #666767",
" @	c #595A59",
".@	c #565852",
"+@	c #5F6255",
"@@	c #5E5F60",
"#@	c #4B4A4B",
"$@	c #777C6F",
"%@	c #969B85",
"&@	c #99A08E",
"*@	c #606060",
"=@	c #909587",
"-@	c #84897E",
";@	c #4C4B4C",
">@	c #787C6F",
",@	c #B9BFA0",
"'@	c #878C7E",
")@	c #84897B",
"!@	c #4F4F50",
"~@	c #373636",
"{@	c #85887C",
"]@	c #A4A993",
"^@	c #7D8078",
"/@	c #70726E",
"(@	c #636463",
"_@	c #7E8277",
":@	c #70736D",
"<@	c #61635B",
"[@	c #575950",
"}@	c #454542",
"|@	c #3D3C3D",
"1@	c #353434",
"2@	c #2A2727",
"3@	c #ADB196",
"4@	c #9CA18E",
"5@	c #C4CAA8",
"6@	c #7F8378",
"7@	c #5A5C56",
"8@	c #50514A",
"9@	c #5F6155",
"0@	c #4B4C44",
"a@	c #8F9283",
"b@	c #4D4E46",
"c@	c #282526",
"d@	c #343334",
"e@	c #6A6C5B",
"f@	c #727565",
"g@	c #6B6D67",
"h@	c #AFB496",
"i@	c #B9BE9C",
"j@	c #8E9283",
"k@	c #AFB499",
"l@	c #494B44",
"m@	c #323033",
"n@	c #7D7F71",
"o@	c #A7AB8F",
"p@	c #A8AD91",
"q@	c #848679",
"r@	c #65695E",
"s@	c #7B8072",
"t@	c #8C9182",
"u@	c #909688",
"v@	c #4E4E47",
"w@	c #7C7F71",
"x@	c #CFD5B0",
"y@	c #56594F",
"z@	c #4B4D45",
"A@	c #73776B",
"B@	c #B8BEA0",
"C@	c #7A7F72",
"D@	c #64685D",
"E@	c #32322E",
"F@	c #71736D",
"G@	c #64675D",
"H@	c #9FA58D",
"I@	c #C4C9A7",
"J@	c #BFC4A4",
"K@	c #4F4F47",
"L@	c #696B5A",
"M@	c #7D806C",
"N@	c #898C7B",
"O@	c #838679",
"P@	c #6C6D68",
"Q@	c #83877D",
"R@	c #898C7E",
"S@	c #70736E",
"T@	c #A7AB8E",
"U@	c #BABF9D",
"V@	c #BDC3A1",
"W@	c #BEC4A3",
"X@	c #A8AD90",
"Y@	c #727464",
"Z@	c #6B6D68",
"`@	c #A7AD97",
" #	c #A5A991",
".#	c #C5CAA7",
"+#	c #595958",
"@#	c #7E8377",
"##	c #5B5D57",
"$#	c #555752",
"%#	c #71746F",
"&#	c #84887E",
"*#	c #B3B89C",
"=#	c #4F4F4F",
"-#	c #686B5F",
";#	c #838677",
">#	c #767974",
",#	c #737671",
"'#	c #9EA38F",
")#	c #292626",
"!#	c #343233",
"~#	c #51534B",
"{#	c #565950",
"]#	c #676965",
"^#	c #7C8075",
"/#	c #969B8B",
"(#	c #A4A994",
"_#	c #80847B",
":#	c #C7CCAA",
"<#	c #50524A",
"[#	c #767873",
"}#	c #919585",
"|#	c #B6BB9E",
"1#	c #747869",
"2#	c #66695E",
"3#	c #83887D",
"4#	c #949A8A",
"5#	c #7B7F72",
"6#	c #6C6F64",
"7#	c #8B9083",
"8#	c #888D7E",
"9#	c #60635B",
"0#	c #50524B",
"a#	c #939989",
"b#	c #8A8F80",
"c#	c #989D8D",
"d#	c #4B4B4B",
"e#	c #878A74",
"f#	c #656666",
"g#	c #929685",
"h#	c #808478",
"i#	c #72746F",
"j#	c #5C5C5D",
"k#	c #3A393B",
"l#	c #323032",
"m#	c #4E4E4F",
"n#	c #6B6D6C",
"o#	c #5C5E58",
"p#	c #363435",
"q#	c #3F3E3E",
"r#	c #474747",
"s#	c #707262",
"t#	c #737565",
"u#	c #6C6E68",
"v#	c #535354",
"w#	c #C5CBA9",
"x#	c #6B6C6C",
"y#	c #87897C",
"z#	c #9DA391",
"A#	c #565853",
"B#	c #787D70",
"C#	c #A5AA94",
"D#	c #444441",
"E#	c #82867C",
"F#	c #585953",
"G#	c #4A4A4A",
"H#	c #797D70",
"I#	c #3D3B3C",
"  . + @ # $ % & * = - ; = >   , ' ) ) & , ! - ~ { % $ @ @ $ % ' *   > ] ; ^ / / ^ ; ]                         >   , ' ) ) ) ) ) ",
". ( _ : < [ } | 1 2 3 4 5 6 7 8 9 ) ) 9 0 a b c d } [ : : [ } e 1 f g h i j k l l m n o p q     q r s s s s r r   , ' ) ) ) ) ) ",
"+ _ t : : u v w x y z 5 A B C D E ) ) E D F G H I v J : : u v w x K o L M N O P Q R S K T   q                 >   , ' ) ) ) ) ) ",
"@ : : : : < : U V 9 W 2 X Y Z `  .) ) ..) +.@.#.$.: # : : < : U V %.&.*.=.( _ : < [ } e 1 T -.-.;.>.,.. . ,.>.;.-.'.& ) ).) ) ) ",
"# < : : : < : U V !.~.y 2 {.Y ].^.) ).) ) /.^.(._.: # : : < : U V :.* <.[.}.|.# # J [ 1.e K o o K 2.3.+ + 3.2.4.o , %.) ) ) ) ) ",
"$ [ u < < u [ 5.6.).) 7., 8.9.0.a.b.) c.~.d.%.e w [ e.< < e.[ 1.e f.g.h.i.: # : : < : U V ~.W 1 x } [ : : [ } x 1 j.k.9 E ) ).) ",
"% } v : : [ } 6.l.).) 7., ! m.n.{ ) ..D 0 o., 1 p.} [ : : [ } x 1 g.q.r.s.< # : : < : U V t.~.e u.[ J # # J [ 1.e v.g.0 ~.) ) ) ",
"' e w U U 5.w.).) E D y x.y.z.A.(.V V e 1 ;.-.;.K e 1.U U 1.x B.;.* %.6.5.[ u < < e.[ C.w.) ) V $ : < : : < : U V D.E.F.G.' & ' ",
"* 1 x V V 6.l.) ) 9 0 H.X I.J.$.K.$ $ u.x 4.;.-.;.1 e V V e 1 ;.-.* & L.w.} [ : : [ } 6.l.b.) V $ : < : : < : U V M.N.X H., , , ",
"  T B.d.O.d.d.:.%.P.f Q.9.R.S.: # : : [ } e 1 T g T.K & ' v.j.'.'.U.v.V.E w.C.U U W.X.{ Y.Z. .`.5.[ u # # J [ W. +.+++@+!       ",
"> g o * * * '., , T.#+$+- l Q # %+< : e.[ 1.e K ;.g ;.&.* g.q.%.& v.j.&+V.l.6.V V *+=+0.-+;+` l.w.} [ : : [ } X.=+>+,+- '+>   > ",
"s )+<.. . . . <.)+!+~+{+]+^+/+: # : : < : U V ' *   r g T 0 D ) ) ~.0 j.q.(+M._+{ :+<+[+[+<+}+Z.|+w.5._.$.I 1+2+3+H 4+5+6+q     ",
"  <.[.7++ + 7+[.=.~+i z.J.8+9+: : : : < : U V & * > r T 4.~.E ).).E ~.k.U.0+a+n.b+<+c+d+d+e+f+g+Z.L.`.(.A.h+c i+j+k+l+C m+      ",
". ( _ : < < : _ ( n+o+p+q+[ J @ < < @ u [ 5.6.& * #+T 0 D ) ) ) ) ) ) 9 0 2 r+s+t+~ ~ ~ ~ u+s+v+Z w+D.x+y+z+A+^+8+[ B+e 1 T.g   ",
"+ _ C+# # # # |._ D+E+F+G+B+[ : : : : [ } w.l.%.'.T 4.D E ) ) ) ) ) ) E ~.G.H.a H+{ _+I+{ J+K+{.v+L+M+N+O+1+I 8+P+J Q+1.e K o   ",
"@ : : : : : : < : $ V ) ) w.5.$ U U $ C.w.!.~.4.T , %.) ) ) ) ) ) ) ) ) ) ~.0 1 x % V V % | 1 K+s+s+K+1 | } [ : : @ : $ % ' *   ",
"# < : : : : : < < U V ) R+l.6.% V V % 6.l.~.&+T #+, & ) ).) ) ) ) ) ) ) ) t.9 | 1.$ U U $ S+| T+u+U+H+x 1.[ J # : < : U V & *   ",
"$ [ u @ < < @ u [ 5.6.V+~.& & W+M.Y.a.Y.Y.X+m+r > , & ) ).) ) ) ) ) ) ) ) ) ) V $ @ # # @ U V Y.b+b+Y.V U : < : : < : U V ' *   ",
"% } v : : : : [ } `.l.D &+, &.M+a+~ -+~ Y+B Z+r   , ' ) ) ) ) ) ) ) ) ) ) b.) V $ @ # # @ U V { ~ ~ { V U : < : : @ : $ % ' *   ",
") `.5.$ $ $ $ 5.`.E ~.K T.`+h  @.@+@H H +@L+E.T #+T K D E ) ).) ) ).) V+D :.%.e w $ U $ $ C.`.M.L+L+M.6.C.[ u < < u [ 5.6.& *   ",
"b.l.6.% V V % 6.l.~.&+T.g @@#@.@$@%@k+I %@M.(+K T.#+T 0 D ) ) ) ) ) ) D 0 * * 1 e % V V % w.L.(+0+0+(+l.w.} [ : : [ } w.l.' '.  ",
"' D V+&@......!.9 P.T.`+*@{.Y =+*+B+[ [ B+`.l.D &+T #+T B.d.O.d.:.' %.K T.q q T K D V+) ) t.=@-@;.T K ~.!.w.C.U U C.w.!.~.K T   ",
", &+~.b.) ) b.~.&+T.g h ;@.@>@*+,@Q+J J Q+C.`.E ~.K T #+T , , , , , , T #+r r -.o W ~.) ) ~.&+T.#+#+T.&+~.l.6.V V 6.l.~.&+T.#+  ",
"  T.K (+'@a.)@F a '+8.!@~@~ { V U @ # # @ $ V ).) %.* )+{@. . ,.>.o -.q       r q * :.L.6.]@h.,.^@/@(@K+J+{ { { a.a.a._@m+      ",
"> #+T :@<@[@Y+G }@|@- 1@2@~ I+V U : < < : $ V ).) :., <.3@+ + 3.4@4.;.q >     r q &.%.6.5.5@i.3.2.6@7@}@8@Y+Y+~ ~ ~ Y+B Z+q     ",
"  #+o n m l l H 9@Y+Y+0@c+-+_+w.C.$ $ $ $ 5.6.t.V.D.a@( _ : < [ } e 1 T -.>   g T.1 e } [ : : [ } X.=+b@c+c@d@j e@l l f@g@r >   ",
"  o K S h@i@i@I d I+Y.:+b@Y+{ L.w.% V V % `.L.V.&+j@k@_ |.# # J [ 1.e K o q q o K x w [ e.< # J [ W.*+:+l@m@!@n@o@i@i@p@q@  r   ",
"  >.2.} [ : : [ } w.l.Z.;+r@s@t@|+....) ) ..) u@0 h.i.: # : : < : U V D W T #+* %.V U : < : : < : U V { 0.v@w@( }.< < _ ( <.)+  ",
"  ,.3.[ J # # J [ C.w.|+Z.s@r@;++.b.) b.b.) ) |+~.]@}.< # : : < : U V E ~.4.T * ' V U : < : : < : U V { n.e@o@}.x@# # |._ [.<.  ",
"> . + : # : : @ : $ % ..) { y@z@A@'@(+d.d.d.%.~.E 6.5.[ u < < u [ 5.6.).) %., * %.6.5.[ u < < e.[ B@*+C@D@A.$.: # : : # : + .   ",
"  . + : # : : < : $ V ..) _+Y+E@0@<@F@, , * , &+9 L.w.} [ : : [ } 6.l.).) %., '.:.l.w.} [ : : [ } *+=+G@s@H@I@< # : : # < J@.   ",
", h.i.: # : : < : $ V E u@6@7@K@L@M@N@. . O@P@2 Q@~.!.`.5.$ $ 5.w...) !.D K T T K ~.V+6.5.$ $ C.`.{ ~ ~ { 6.C.[ u < < J [ 3.R@> ",
"' ]@5@: < : : @ : $ % D W S@Z+N T@U@V@J@W@X@Y@r+Z@&+~.l.6.V V 6.l.) ) D 0 T #+#+T &+~.l.6.V V w.l.a.-+n.{ L.`@} [ : : [ } 2.>.  ",
") 6.5.[ u < < u [ 5.6.' * )+<. #.#: < # : $.A.v++#F.y 9 !..... .` { Y.@#/@s s s r * %.) ..).) !.D X+####_@V.E 6.5.U U 5.w.9 &+, ",
") L.6.} [ : : [ } w.l.d.* =.[.}.|.# # # # I@(.>@$#r+2 &+~.) ) Z.;+y@n.B Z+q   r q * %.) ) ) b.~.&+%#Z+Z+%#&+~.l.6.V V 6.l.t.~.' ",
":.V.V+w.5.U U 5.6.t.=@&#;.R@*#[ J @ < # @ U V _+0.d@=#a T+{ { Z v+b u+-#;#. . R@>.&+~.t.D ' %.K T g ;.>#* &+u@c.~.%.%.%.%.:.:.:.",
", &+~.l.6.V V 6.l.~.&+,##+>.'#B+[ : : : : U V I+~ )#!#}@~#{#[@v+{.]#^#E+D++ + 3.2.9 t.D 0 , * T #+T K %.& D t.~.&+* >#* '., , , ",
"* g.q.%.& :.:./#(#]@h.R@^@_#~.6.5.$ U U :#W.*+s@G@[@Y+[@[@<#}@3 2 1 | } [ : : [ } `.l.D &+T #+g T 1 e % V V % e 1 T -.g ;.* * * ",
":.v.j.'.* [#* }#|#5@i.*#2.~.|+l.6.% V V % *+1#2#s@{ _+{ { H+a Z@3#| 1.[ J # # J [ 5.6.V+V.B.T ;.4.e 1.$ U U $ u.x B.;.T B.:.%.:.",
"% e 1 T g )+<.( _ : < [ } 6.l.) ) 4#` _+Y.5#r@].Z.) ).) ) ~.0 W ~.V U : < : : < : $ V ) b.:., * :.% $ : @ < : U V ~.W 1 x % V % ",
"$ 1.x -@;.{@3@_ |.< # J [ 5.6.) R+Z.6#0.0.G@s@Z. .........E 9 ~.V+V U : < : : < : $ V ).) %., * %.V U @ # # @ U V t.~.e u.$ U $ ",
"@ U V d.* . + : # : : < : $ V ..b.{ [@c+<+].t@) ).) ) ) ) ) ) b.) 6.5.[ u < < u [ 5.6.).) %., * %.V U < # u [ 5.6.b.b.V $ : < : ",
"@ U V O.* . + < # : : < : $ V ..b.Y.n.0@.+Z.|+).) ) ) ) ) ) ) ) ) l.6.} [ : : [ } 6.l.) ) :., * :.% $ : @ [ } 6.l.b.) V $ @ # @ ",
"$ 5.6.7#E.;#D+[ J < < u [ 5.6...b.Y.[@[@{ ) ..) ) ) ) ) ) ) ) ) ) ) ) `.5.$ $ 5.`.).) E ~.B.T ;.B.x 1.U U 5.6.) b.) ).w.C.[ e.@ ",
"% w.L.8#9#-#E+} [ : : [ } 6.l...) Y.[@[@{ )...) ) ) ) ) ) ) ) ) ) ) b.l.6.V V 6.l.) ) D 0 T #+g T 1 e V V 6.l.b.) ) ) l.6.} [ : ",
") ..) { [@Y+{ `.C.$ $ 5.6.) b...) { y@0#H+D !.) ) ) ) ) ) ) ) V+D %.%.D V+).).V+D & :.q.g.* &.* '.U.v.~.E ) ).) ) a#b#)@a.*+B@$ ",
"b.) ) Y.Y+~ a.l.w.V V 6.l.b.) ..) { [@}@a 0 9 ) ) ) ) ) ) ) ) D 0 * * &+~.) ) ~.&+'.* j.v.%.& & %.q.g.W V.b.) ).) ` ].-+0.=+*+% ",
"..!.D ^#G G J+9 c#......&@).) !.D 6@B d#h T K ~.E ) ).).) E ~.4.T r r T K & & K T -.;.1 e V V 6.l.V.&+j.q.d.:./#(#(.e#H c D@5#Y.",
") 9 0 K+}@}@K+&+~.b.) b.) ) ) D 0 %#Z+*@f#g T.0 D ) ) ) ) D 0 T g r r #+T , , T #+;.4.x 1.U U 5.w.E V.v.U.&.'.g#|#_.$.I d s@G@~ ",
"{ h#i#j#k#l#m#]#F )@a.'@(+& & K T.> s n#;.* , j.v.%.& & %.v.j.'.* * * o g >   g T.1 e } [ : : [ } `.l.~.&+^@R@( _ : < [ } X.=+[@",
"[@o#Z+j#; 2@p#}@G Y+[@<@:@, , T #+r   f K & %.v.j., '.'., j.v.%.& & ' K T r r ;.K e 1.[ e.< < u [ 5.6.t.V.4@*#I@C+# # J [ B@*+Y.",
"q#r#5 y.s#l l l l l l t#u#q   r r *.<.h.r.6.L.~.&+%#Z+Z+%#&+~.l.6.V V e 1 ;.-.>#%.V U : < : : < : $ V ) ) V $ : < : : < : $ V ) ",
"! v#r#s#J.i@Q i@S.i@S.p@O@> s s   <.[.i.w#5.w.!.V._@####_@V.!.w.5.U U 1.e 4.o * ' V U : < : : < : $ V b.) V U < < : : < : :#V ..",
"] +#Y A.$.: # : : # : i.h.T x#)+y# #.#: < [ B+`@z#Y.Y+Y+Y.l.w.} [ : : [ } x 1 &+~.6.5.[ u < < e.[ u.x d.d.x u.[ e.< < u [ 5.6.) ",
"q#A#B#(._ # %+# # %+# w#r.B.;.<.[._ |.# # u [ C.6.{ ~ ~ { 6.C.[ u < < e.[ u.e ~.c.l.6.} [ : : [ } e 1 * * 1 e } [ : : [ } 6.l.) ",
"^ ~ { V U @ # < @ u [ 5.6.V.&+}#|#[ J < < u [ C.6.Y.n.~ Y.V U : < : : < : $ V ) b.b.) 6.5.U U w x v.g.'.'.g.v.x w U U 5.w.E ~.& ",
"/ ~ I+V U : : : : [ } 6.L.t.D /#C#B+[ : : [ B+`@z#Y.Y+~ Y.V U : < : : < : $ V ) b.) b.l.6.V V x 1 g.f.%.%.f.g.1 x V V 6.l.~.&+, ",
"/ ~ I+`.C.$ $ $ $ 5.6.) b.) ) b.) 6.5.$ $ 5.6...b.Y.[@Y+{ `.C.[ u < < u [ 5.6.) ) ) ) ) ) t.~.q.U.0 ~.) ) ~.0 j.v.& & D.M.H+a ! ",
"^ Y+{ L.w.% V V % 6.l.b.) ) ) ) ) l.6.V V 6.l.) ) Y.[@Y+Y.l.w.} [ : : [ } 6.l.) ) ) ) ) b.V.W g.q.~.E ).).E ~.q.g.* &.E.9#G D#- ",
"; B C D !.) ).) ) ) ) ) ) ) ) ) ) ) ) ) ) ) ) ..).{ {#>+:+Z.|+w.C.U U C.w.V+~.D V+) ) ) ) ~.E#E#D ) ) ) ) ) ) & , `+@@{.F#[@{#[@",
"] Z+i#&+~.b.) b.b.b.) ) ) ) ) ) ) ) b.b.b.b.) ..) { [@c+<+g+Z.l.`.V V 6.l.V.&+0 ~.) ) ) ) t.~.~.t.) ) ) ) ).) & '.@@G#v+$@{ { { ",
"  q   T.K %.& D t.) ) t.D ' %.' ' %.' D t.) )  .` H#Y I#I#Y H#{ I+{ { w+(+K T.T K D V+) ) t.D %.%.D t.) ) &@) W+:@{.v+].` ) ).) ",
"      #+T * , 0 D ) ) D 0 , * , , * , 0 D ).) ` ].Y {.= '+{.Y Y+n.b+~ L+0+T #+g T 0 D ) ) D E#, '.0 D ) ) ..) M.<@F#$@` |+......",
"          >   , ' ) ) ' ,   >     >   , ' ..) { [@; !     ] ; ^ / / ^ ; ]     >   , ' ) ) ' , > > , ' ) ) ..) Y.[@[@Y.) ..) ) ) "};
