/* XPM */
static char * wall2_xpm[] = {
"64 64 588 2",
"  	c None",
". 	c #696A6A",
"+ 	c #8F9282",
"@ 	c #BFC4A3",
"# 	c #D3DAB2",
"$ 	c #D4DAB3",
"% 	c #C6CCAA",
"& 	c #ABB198",
"* 	c #8E9486",
"= 	c #777A74",
"- 	c #68696A",
"; 	c #787B75",
"> 	c #999F8E",
", 	c #868B7C",
"' 	c #55574F",
") 	c #3E3D3D",
"! 	c #5B5C5C",
"~ 	c #676869",
"{ 	c #A4A890",
"] 	c #C4CAA7",
"^ 	c #D3D9B2",
"/ 	c #D4DAB2",
"( 	c #CAD0AC",
"_ 	c #B6BCA0",
": 	c #9FA590",
"< 	c #878B7F",
"[ 	c #747672",
"} 	c #6C6D6C",
"| 	c #6D6E6D",
"1 	c #747772",
"2 	c #82857C",
"3 	c #919788",
"4 	c #737571",
"5 	c #6C6E6C",
"6 	c #7D8078",
"7 	c #9DA28E",
"8 	c #9A9F8A",
"9 	c #737768",
"0 	c #575953",
"a 	c #595958",
"b 	c #6A6C67",
"c 	c #848679",
"d 	c #7E8178",
"e 	c #898C7F",
"f 	c #8E9386",
"g 	c #CED4AE",
"h 	c #D0D6B0",
"i 	c #C9CFAC",
"j 	c #BAC0A1",
"k 	c #9FA490",
"l 	c #868A7F",
"m 	c #737672",
"n 	c #69696A",
"o 	c #979C8C",
"p 	c #85897F",
"q 	c #898C7E",
"r 	c #B3B99C",
"s 	c #B8BEA0",
"t 	c #777B6F",
"u 	c #575852",
"v 	c #727565",
"w 	c #A8AD91",
"x 	c #CFD4AF",
"y 	c #B4B99C",
"z 	c #858A7F",
"A 	c #C7CDAA",
"B 	c #ABB199",
"C 	c #81847B",
"D 	c #8F9486",
"E 	c #9AA08E",
"F 	c #919688",
"G 	c #82867C",
"H 	c #979B89",
"I 	c #C1C6A5",
"J 	c #8A9081",
"K 	c #6C7064",
"L 	c #868A74",
"M 	c #BDC2A0",
"N 	c #979D8C",
"O 	c #969C8C",
"P 	c #A4A993",
"Q 	c #C4CAA8",
"R 	c #949A89",
"S 	c #8B9081",
"T 	c #9FA48D",
"U 	c #C3C9A6",
"V 	c #BABFA1",
"W 	c #D1D7B1",
"X 	c #969B8C",
"Y 	c #BCC2A3",
"Z 	c #A6AC96",
"` 	c #71736F",
" .	c #7E8277",
"..	c #8A8F80",
"+.	c #949989",
"@.	c #989E8E",
"#.	c #8D9285",
"$.	c #D1D7B0",
"%.	c #A7AC96",
"&.	c #9DA390",
"*.	c #646563",
"=.	c #5B5D57",
"-.	c #6D7165",
";.	c #8B9181",
">.	c #9EA491",
",.	c #A7AD96",
"'.	c #81857C",
").	c #929788",
"!.	c #83887D",
"~.	c #6B6D68",
"{.	c #61625D",
"].	c #6F7161",
"^.	c #BAC0A2",
"/.	c #959A8A",
"(.	c #949A8A",
"_.	c #6B6D69",
":.	c #515250",
"<.	c #6F7261",
"[.	c #A3A88A",
"}.	c #BCC29F",
"|.	c #C3C9A7",
"1.	c #8A9080",
"2.	c #6D7065",
"3.	c #787A75",
"4.	c #8E9385",
"5.	c #8D9284",
"6.	c #71736D",
"7.	c #62635D",
"8.	c #969A7E",
"9.	c #C0C6A2",
"0.	c #888C81",
"a.	c #7D8179",
"b.	c #979D8D",
"c.	c #7C8074",
"d.	c #51524B",
"e.	c #575950",
"f.	c #9AA08F",
"g.	c #727471",
"h.	c #686869",
"i.	c #878C7E",
"j.	c #60625B",
"k.	c #777974",
"l.	c #888D81",
"m.	c #686A65",
"n.	c #434341",
"o.	c #55584F",
"p.	c #A4AA94",
"q.	c #969B8A",
"r.	c #7A7E73",
"s.	c #50514A",
"t.	c #767963",
"u.	c #B9BE9C",
"v.	c #6B6D6C",
"w.	c #737470",
"x.	c #86887C",
"y.	c #979B88",
"z.	c #A4AA93",
"A.	c #5B5B5B",
"B.	c #3B3A3B",
"C.	c #7D8175",
"D.	c #737570",
"E.	c #B6BB9E",
"F.	c #929685",
"G.	c #676965",
"H.	c #424240",
"I.	c #BABF9C",
"J.	c #ADB196",
"K.	c #C5CBA8",
"L.	c #3D3C3C",
"M.	c #454542",
"N.	c #696B66",
"O.	c #87897C",
"P.	c #ADB297",
"Q.	c #9EA38F",
"R.	c #C5CAA8",
"S.	c #7C7E70",
"T.	c #4E4E47",
"U.	c #6E715E",
"V.	c #ADB394",
"W.	c #686969",
"X.	c #6F726C",
"Y.	c #60635B",
"Z.	c #575952",
"`.	c #5A5B59",
" +	c #6C6E69",
".+	c #84887D",
"++	c #7D7F77",
"@+	c #A5A991",
"#+	c #B7BDA0",
"$+	c #CED4AF",
"%+	c #CFD5AF",
"&+	c #A6AA8E",
"*+	c #6A6C5A",
"=+	c #5F6155",
"-+	c #959A85",
";+	c #888E7F",
">+	c #787C70",
",+	c #898D81",
"'+	c #9CA18E",
")+	c #C5CAA7",
"!+	c #64685D",
"~+	c #7A7F72",
"{+	c #9AA08A",
"]+	c #B9BFA0",
"^+	c #8C9183",
"/+	c #A0A590",
"(+	c #585A53",
"_+	c #72746F",
":+	c #C4C9A7",
"<+	c #9FA58D",
"[+	c #7B7F72",
"}+	c #63665C",
"|+	c #888D7E",
"1+	c #5F625A",
"2+	c #5A5C57",
"3+	c #7F8377",
"4+	c #959B8B",
"5+	c #777C6F",
"6+	c #5A5B56",
"7+	c #7E8377",
"8+	c #BCC2A4",
"9+	c #4B4C45",
"0+	c #73776B",
"a+	c #55574E",
"b+	c #858A7C",
"c+	c #54564E",
"d+	c #A7AD97",
"e+	c #868C7D",
"f+	c #312F2C",
"g+	c #494B44",
"h+	c #6C6F64",
"i+	c #56584F",
"j+	c #565950",
"k+	c #787C6F",
"l+	c #4F5048",
"m+	c #7F8378",
"n+	c #5C5D5D",
"o+	c #565852",
"p+	c #7D7F71",
"q+	c #A7AB8F",
"r+	c #50504F",
"s+	c #C1C7A5",
"t+	c #71746F",
"u+	c #75796C",
"v+	c #3D3B3C",
"w+	c #5C5C5C",
"x+	c #6A6B6B",
"y+	c #585953",
"z+	c #595A58",
"A+	c #6A6C68",
"B+	c #A5AA93",
"C+	c #C5CBA9",
"D+	c #4C4D45",
"E+	c #33322E",
"F+	c #606060",
"G+	c #4B4B4B",
"H+	c #444442",
"I+	c #4F514A",
"J+	c #5F6060",
"K+	c #666767",
"L+	c #84897B",
"M+	c #4C4C4C",
"N+	c #656666",
"O+	c #656667",
"P+	c #5E5F5F",
"Q+	c #6B6D67",
"R+	c #777A75",
"S+	c #A0A591",
"T+	c #909687",
"U+	c #5D5E5F",
"V+	c #4A4A4B",
"W+	c #84877A",
"X+	c #767974",
"Y+	c #70736C",
"Z+	c #86897C",
"`+	c #61635B",
" @	c #959B8A",
".@	c #65695E",
"+@	c #646564",
"@@	c #5C5D57",
"#@	c #56594F",
"$@	c #50524A",
"%@	c #51514F",
"&@	c #64675D",
"*@	c #7B8072",
"=@	c #99A08E",
"-@	c #656664",
";@	c #5C5E57",
">@	c #BDC3A4",
",@	c #9DA391",
"'@	c #919687",
")@	c #8C9188",
"!@	c #90958A",
"~@	c #969C8D",
"{@	c #8C9189",
"]@	c #838782",
"^@	c #717375",
"/@	c #65656D",
"(@	c #767877",
"_@	c #8E9387",
":@	c #8C9181",
"<@	c #696C66",
"[@	c #878C7F",
"}@	c #8B9085",
"|@	c #9EA392",
"1@	c #BABFA2",
"2@	c #BDC3A0",
"3@	c #B2B799",
"4@	c #A2A892",
"5@	c #8C9282",
"6@	c #8C9184",
"7@	c #71746D",
"8@	c #8D9189",
"9@	c #7F837B",
"0@	c #575954",
"a@	c #54564D",
"b@	c #797D70",
"c@	c #888D7F",
"d@	c #8B9086",
"e@	c #6F707C",
"f@	c #7C7F81",
"g@	c #6E707C",
"h@	c #6B6C7A",
"i@	c #636275",
"j@	c #5D5C72",
"k@	c #5E5D72",
"l@	c #72737A",
"m@	c #8D9288",
"n@	c #444441",
"o@	c #5C5E5D",
"p@	c #686A72",
"q@	c #828584",
"r@	c #878B74",
"s@	c #818471",
"t@	c #909584",
"u@	c #6E7266",
"v@	c #61635C",
"w@	c #8F9489",
"x@	c #7B7E81",
"y@	c #6B6C78",
"z@	c #53554C",
"A@	c #5D5F5E",
"B@	c #6D6E7B",
"C@	c #6E6F7C",
"D@	c #7B7D81",
"E@	c #504E67",
"F@	c #646571",
"G@	c #808381",
"H@	c #8D9188",
"I@	c #888D80",
"J@	c #7B7F77",
"K@	c #62626D",
"L@	c #53506B",
"M@	c #575571",
"N@	c #5A5875",
"O@	c #5A5876",
"P@	c #5A5775",
"Q@	c #6A6A7A",
"R@	c #818583",
"S@	c #979C8D",
"T@	c #4F504C",
"U@	c #1F1B18",
"V@	c #1D1818",
"W@	c #363343",
"X@	c #696A78",
"Y@	c #7D817B",
"Z@	c #4D4F46",
"`@	c #51524D",
" #	c #7A7E77",
".#	c #51534E",
"+#	c #4E4F47",
"@#	c #50514D",
"##	c #808380",
"$#	c #4F4C66",
"%#	c #4D4B63",
"&#	c #353240",
"*#	c #3E3C4E",
"=#	c #4A485F",
"-#	c #7F8380",
";#	c #353242",
">#	c #4A4956",
",#	c #646471",
"'#	c #6F717D",
")#	c #696B73",
"!#	c #5E605E",
"~#	c #3F3E45",
"{#	c #413E53",
"]#	c #514F6A",
"^#	c #595775",
"/#	c #5F5E77",
"(#	c #7C7F82",
"_#	c #62636D",
":#	c #403F46",
"<#	c #1D1917",
"[#	c #1B1516",
"}#	c #353142",
"|#	c #4E4C66",
"1#	c #58576D",
"2#	c #56585B",
"3#	c #4A4B44",
"4#	c #302F2C",
"5#	c #61616C",
"6#	c #61626C",
"7#	c #34332F",
"8#	c #4B4D45",
"9#	c #353430",
"0#	c #61626D",
"a#	c #343141",
"b#	c #312E3C",
"c#	c #29252D",
"d#	c #353241",
"e#	c #47455C",
"f#	c #49465E",
"g#	c #3D3A4E",
"h#	c #201C1A",
"i#	c #312E3A",
"j#	c #47455A",
"k#	c #53516B",
"l#	c #585672",
"m#	c #373442",
"n#	c #1F1A17",
"o#	c #818584",
"p#	c #413F53",
"q#	c #312F3A",
"r#	c #272429",
"s#	c #32303C",
"t#	c #3F3D4F",
"u#	c #373443",
"v#	c #3F3C4E",
"w#	c #4A485E",
"x#	c #464459",
"y#	c #322F3B",
"z#	c #28242A",
"A#	c #28252B",
"B#	c #46445A",
"C#	c #504D67",
"D#	c #363442",
"E#	c #211D1C",
"F#	c #383544",
"G#	c #373543",
"H#	c #1D1916",
"I#	c #3E3845",
"J#	c #5E566C",
"K#	c #655D77",
"L#	c #58546D",
"M#	c #262227",
"N#	c #302D3A",
"O#	c #413F54",
"P#	c #524F6A",
"Q#	c #1C1716",
"R#	c #1E1917",
"S#	c #52506A",
"T#	c #434054",
"U#	c #424053",
"V#	c #575572",
"W#	c #27242A",
"X#	c #3E3B4E",
"Y#	c #49475E",
"Z#	c #4F4D66",
"`#	c #4F4D67",
" $	c #3D3B4E",
".$	c #272329",
"+$	c #322F3C",
"@$	c #454359",
"#$	c #373544",
"$$	c #4B404B",
"%$	c #726174",
"&$	c #746378",
"*$	c #53495A",
"=$	c #242127",
"-$	c #47445A",
";$	c #201C1B",
">$	c #424054",
",$	c #434155",
"'$	c #353342",
")$	c #302E3A",
"!$	c #3E3946",
"~$	c #5F4F5C",
"{$	c #72606F",
"]$	c #6C5B69",
"^$	c #473C44",
"/$	c #312E3B",
"($	c #272328",
"_$	c #262328",
":$	c #201C1C",
"<$	c #434154",
"[$	c #3F3C4F",
"}$	c #726275",
"|$	c #736070",
"1$	c #483C44",
"2$	c #31292D",
"3$	c #33303C",
"4$	c #58536D",
"5$	c #655D76",
"6$	c #3F3946",
"7$	c #1F1B1A",
"8$	c #615970",
"9$	c #78687F",
"0$	c #746478",
"a$	c #544A5B",
"b$	c #1F1B19",
"c$	c #544B5C",
"d$	c #736275",
"e$	c #4C414C",
"f$	c #1D1A17",
"g$	c #4A4457",
"h$	c #211D1D",
"i$	c #312F3B",
"j$	c #201B1A",
"k$	c #56526C",
"l$	c #534A5B",
"m$	c #5E4F5C",
"n$	c #725F6F",
"o$	c #6C5A6A",
"p$	c #483C45",
"q$	c #1E1B1A",
"r$	c #5F4F5B",
"s$	c #322A2E",
"t$	c #584D5D",
"u$	c #655A71",
"v$	c #645A71",
"w$	c #594D5D",
"x$	c #514756",
"y$	c #4F4A60",
"z$	c #242227",
"A$	c #414053",
"B$	c #52506B",
"C$	c #262327",
"D$	c #484356",
"E$	c #615870",
"F$	c #766880",
"G$	c #857187",
"H$	c #816C7E",
"I$	c #655562",
"J$	c #312A2E",
"K$	c #473B44",
"L$	c #6D5B6A",
"M$	c #7D697C",
"N$	c #816E82",
"O$	c #6F5D6E",
"P$	c #504655",
"Q$	c #262429",
"R$	c #60586F",
"S$	c #78687E",
"T$	c #8B7589",
"U$	c #8A7387",
"V$	c #806B7D",
"W$	c #7E6A7D",
"X$	c #8E768A",
"Y$	c #8E778B",
"Z$	c #756479",
"`$	c #252228",
" %	c #594D5C",
".%	c #655B72",
"+%	c #675F7A",
"@%	c #5F5B77",
"#%	c #7A6A82",
"$%	c #857186",
"%%	c #4A3F4A",
"&%	c #302E39",
"*%	c #867187",
"=%	c #756780",
"-%	c #57536C",
";%	c #816E83",
">%	c #7A6A81",
",%	c #75677F",
"'%	c #3E3846",
")%	c #605870",
"!%	c #837086",
"~%	c #837085",
"{%	c #77687E",
"]%	c #5B5976",
"^%	c #494456",
"/%	c #6B617B",
"(%	c #484355",
"_%	c #363342",
":%	c #6C627C",
"<%	c #6B627C",
"[%	c #494356",
"}%	c #353341",
"|%	c #665F79",
"1%	c #605B78",
"2%	c #67607B",
"3%	c #5E556C",
"4%	c #4B404A",
"5%	c #3D3B4D",
"6%	c #4A475E",
"7%	c #322F3A",
". + @ # $ % & * = . - . . - . ; * > > * ; - - = * & % # # % & , ' ) ! ~ . + @ # $ % & * = . - . . . . . . . . - . ; * > > > > > ",
"+ { ] ^ / ( _ : < [ } - . | 1 2 3 > > 3 2 4 5 6 7 _ ( ^ ^ ( _ 8 9 0 a b c { ] ^ / ( _ : < [ } } 4 d e + + e d 4 } = f > > > > > ",
"@ ] g ^ ^ h i j k l m n n [ l 3 o > > o 3 p [ q r i h ^ ^ h i s 8 t u v w ] x ^ ^ h i j k l m m l 7 y @ @ y 7 z m ; f > > > > > ",
"# ^ ^ ^ ^ / ^ A B 3 C [ | ; D E E > > > > F G H I ^ $ ^ ^ / ^ A B J K L M ^ $ ^ ^ / ^ A B F C < k _ ( ^ ^ ( _ k < G F > > > > > ",
"$ / ^ ^ ^ / ^ A B N F z [ ; * > E > > > > O 3 P Q ^ / ^ ^ / ^ A B R S T U / $ ^ ^ / ^ A B O F : V ( W $ $ W ( V : 3 X > > > > > ",
"% ( h / / h ( Y Z E > D ; `  ...+.@.@.X F #.f : j ( $./ / $.( V : F O Z Y ( h / / h ( Y %.> > B % ^ / ^ ^ / ^ A B o F 3 o > E > ",
"& _ i ^ ^ ( _ Z &.E > D ; *.=.-.;.> E 3 2 = ; < : _ ( ^ ^ ( _ k < 2 3 >.,._ ( ^ ^ ( _ Z &.@.> B % ^ / ^ ^ / ^ A B 3 '.2 F > > > ",
"* : V % % Y Z > @.N ).!.~.{.].L T B B : < 4 } 4 l : ^.A A ^.k p 4 [ z F N %.Y % % Y %./.S S (.Z Y ( h / / $.( ^.: l m 1 l * D * ",
"= < k B B Z &.> > ).2 _.:.<.[.}.|.% % V k z 4 } 4 < : B B : < 4 } 5 [ '.F &.Z B B %.&.1.K 2.S &.,._ ( ^ ^ ( _ : < [ } | [ ; ; ; ",
". 3.4.@.> @.@.> > 5.6.7.].8.9.^ $ ^ ^ ( _ : < [ } [ l f 4.0.a.= = [ | [ l 3 N E E b.3 c.d.e., > f.Z Y A A ^.: l g.~ h.n . . . . ",
"- = 4.@.> @.> f.> i.j.].[.9.g $ $ / ^ $.( ^.: l 4 5 4 k.= a.l.* D l [ 5 [ '.F > > F '.m.n.o., > > &.Z B B : < m } n . . n - - - ",
"~ 6 7 & B B & p.q.r.s.t.u.^ $ ^ ^ ^ ^ / ^ A B 3 C m v.w.x.y.z.Z >.F '.[ | 1 l D * l [ A.B.s.C.).b.E E N F p 4 D.x.e d m } n . . ",
". e y % A A % E.F.G.H.t.I.$ $ ^ ^ ^ ^ / ^ A B N F p [ x.J.I K.Y ,.N F l [ | [ ; ; 1 | ! L.M.N.2 ).> > F C g.} O.P.y Q.l m . n . ",
"+ { ] ^ / / ^ R.{ S.T.U.V.( W # / / # h ( Y Z > @.q.F.{ ] ^ / ( _ ,.&.D ; . W.5 m = = X.Y.Z.`. +.+D D l.a.++q @+] ( #+: < 1 5 . ",
"@ ] $+# / / # %+] &+*+=+-+_ ( ^ ^ ^ ^ ( _ Z &.> > p.E.] %+$ $ h ( Y Z D = - W.[ z f D 5.;+>+0 :. +3.; a.,+'+y )+%+W ( ^.: l m . ",
"# ^ ^ ^ ^ ^ ^ $ ^ M L !+~+{+]+% A % % Y Z > > > > B % ^ / ^ ^ / ^ A B ^+X.*.` < /+B B ,.>.;.2.(+`.*._+< /+_ ( ^ ^ # ^ % & * = . ",
"$ / ^ ^ ^ ^ ^ $ / :+<+[+}+9 8 & B B & Z &.@.> @.> B A / / ^ ^ / ^ A B |+1+2+3+: ^.A A Y ,.4+S 5+Z.6+7+k ^.( W / ^ / ^ A B D = . ",
"% ( h # / / # h ( 8+%., o.9+0+..(.@.> > > O 3 4.f : j ( $./ / h ( 8+%., o.a+, B A $ $ % B f.@.b+o.c+b+B A ^ / ^ ^ / ^ A B D = . ",
"& _ i ^ ^ ^ ^ ( _ d+>.e+o.f+g+h+S @.> > > 3 2 = = < : _ ( ^ ^ ( _ ,.&.b+i+a+, B A $ $ % B f.> , j+a+, B A ^ / ^ ^ # ^ % & * = . ",
"> %.Y % % % % Y ,.4+S k+Z.l+*+L <+Z >.> > f = W.W.m l /+^.A A 8+,.4+S k+(+2+m+: ^.A A Y Z E @.S -.K S Z Y ( h / / h ( Y %.5.X.n+",
"@.&.Z & B B & %.&.S K o+`.p+q+M U Y Z > @.f = W.W.} m < : B B %.&.S K (+`.*._+< /+B B Z >.> > (.;.;.(.&.Z _ ( ^ ^ ( _ ,.&.;+Y.) ",
"* 3 o > > > > /.S 5+0 r+ +y.s+$ $ % B > @.3 2 1 | . . t+m+, , , b+u+9+v+w+. x+[ l F O @.@.@.> > > > > > > ,.Y A A 8+,.4+S >+y+) ",
"; '.F @.> > @.S 2.Z.z+A+.+B+C+$ $ % B > @.o 3 l [ . W.*.2+' a+i+i+D+E+v+n+. . } m C F @.> > > > E E > > @.&.Z B B %.&.S K (+`.n+",
". [ l F O > @.S 2.=.*.= D %.Y % % Y Z > @.> > f = . W.F+G+H+I+' ' o.i+y+`.J+K+W.W.6 7 B B Z &.> > O F f f D D ^+i.b+L+t 0 M+J+. ",
"- 5 [ 2 3 > > (.S 7+t+; D >.,.B B Z >.> > E > D ; . - N+J+m.c.b+, , , >+(+M+J+~ . q y % A Y Z > @.3 2 ; = ; = X.1+o.i+y+`.J+K+. ",
"- } m < : B B ,.>.f 3.[ z 3 N > > > > > > E > 3 2 [ 5 } 4 < : B B %.&.S K 0 z+b c { ] ^ / ( _ %.&.3 '.1 | O+P+7.].t.t.v Q+W.- . ",
". 4 l k V % % Y ,.D R+| [ '.F @.> @.> > > > > o 3 l [ m l S+^.A A 8+,.4+S t y+v w ] %+/ / h ( Y Z o T+l [ U+V+].[.u.u.w W+. W.. ",
"; < S+#+( / / A B f X+W.W.[ l 3 b.f.f.N ).).o E > F 2 < k _ ( ^ ^ ( _ ,.&...2.L M ^ $ ^ ^ / ^ % B f.> 5.Y+{.].8.9./ $ ] { Z+w.- ",
"* : j ( $.$ / A B * = . W.5 [ 2 3 > > F 2 2 F > E O 3 : V ( $./ / h ( Y %.R S T U / $ ^ ^ / ^ % B f.> |+`+].[.9.g $ $ %+] P.Z+. ",
"> Z Y ( h h ( Y Z 3 '.1 | . . t+3+, , c.m. +!.).b.> > B % ^ / ^ ^ / ^ % B @.@.Z Y ( $./ / h ( Y Z  @S ~+.@L M # $ # # $ # I y.; ",
"> >.,.#+( ( #+Z &.o F l [ . W.+@@@e.#@$@M.%@ +2 ).@.E B % ^ / ^ ^ / ^ % B > > >.Z _ ( ^ ^ ( _ ,.&.S 2.&@*@T :+$ $ ^ ^ $ / K.z.* ",
"=@> > ,.Y Y ,.> > f.=@D ; . W.-@;@e.#@j+e.Z.`. +.+F b.,.Y ( $.$ $ W ( Y %.f.> O )./+V % % Y ,.f.> , e.o., ,.>@% A % % % % Y ,.=@",
"> > @.,@Z Z ,@@.> E > D ; . - t+3+b+, , , k+0 %@ +'.).&.%._ ( ^ ^ ( _ Z &.> > '@'.< k B B Z &.> > b+o.o., >.d+& B & & B & Z >.> ",
")@!@~@=@E E f.~@!@{@)@]@^@/@/@(@_@> E E > :@-.(+`.<@C.[@}@|@1@|.2@3@4@/.;.5@ @6@7@6.^+E f.~@!@8@)@9@0@a@b@c@d@)@{@!@~@E E ~@!@)@",
"e@f@!@> > > > !@f@e@g@h@i@j@k@l@m@f.f.f.f.4+;.>+Z.n@s.o@p@q@|@T r@s@t@1.-.u@S |+v@j.i.> > w@x@e@g@y@    z@A@p@B@C@D@w@> > w@x@e@",
"E@F@G@)@H@}@I@J@K@L@M@N@O@P@N@Q@R@!@~@E E S@!@J@T@U@V@W@E@X@Y@u+Z@`@ # #.#+#u+u++#@# #8@8@##F@E@$#%#    &#*#=#$#E@F@-#)@8@G@F@E@",
";#>#,#e@'#)#!#T@~#{#]#^#N@P@N@/#Q@f@!@> > !@(#_#:#<#[#}#|#1#2#3#4#~#5#6#:#7#8#D+9#:#0#'#'#,#>#;#a#b#c#d#e#f#g#a#d#>#,#'#'#,#>#;#",
"h#i#j#k#l#E@m#n#n#m#E@l#k#k#l#P@N@Q@R@)@)@o#Q@k#p#q#r#s#j#=#t#u#m#v#w#x#y#z#y#y#A#y#B#k#l#C#D#h#n#U@E#F#E@E@G#<#H#I#J#K#L#j#i#h#",
"h#M#N#O#P#|#;#Q#R#u#C#S#T#U#S#^#P@/#Q@e@e@Q@/#V#S#j#y#W#q#X#Y#Z#`#=# $N#.$+$@$@$+$.$N#O#P#$#D#h#n#U@E##$E@E@G#H#n#$$%$&$*$N#=$h#",
"#$y#W#y#x#w#v#m#u#t#=#-$s#y#x#S#l#O@O@N@N@N@N@O@N@E@u#;$h#y#-$k#l#k#>$m#u#t#=#j#s#W#y#,$k#k#,$G#'$)$W#s#j#=#t#!$$$~${$]$^$W#/$#$",
"E@-$q#($i#*#=#E@E@=#*#y#($_$y#U#k#N@P@^#^#^#N@O@N@E@u#:$U@($s#<$k#l#k#C#Z#=#[$y#z#y#B#S#l#M@k#E@C#j#y#W#q#*#=#J#}$|$~$1$2$q#B#E@",
"E@=#[$u#m#>$k#l#k#-$y#E#;$W#y#*#=#C#E@L@M@N@O@l#k#j#y#E#;$z#3$*#=#S#l#l#S#-$y#;$;$y#j#k#l#M@S#4$5$J#6$;$7$/$j#8$9$0$a$G#D#[$=#E@",
"#$[$=#Z#C#k#l#k#<$s#($b$:$+$-$w#v#D#D#U#L@N@N@k#U#y#r#;$E#+$-$Y#v#T#k#k#,$s#($h#:$W#3$,$k#S#,$c$0$d$e$:$f$_$s#g$8$5$4$Z#Z#=#[$#$",
"h$i$x#S#M@M@S#Y#*#3$z#h#E#F#E@E@G#n#n#m#E@l#k#j#y#h$;$;$h$+$-$Y#v#T#k#k#,$3$W#h$E#j$;$D#Z#k$l$m$n$o$p$h$q$h#;$i#B#Z#E@E@E@j#y#h$",
"h#($s#,$k#k#T#v#Y#-$+$h#;$F#E@E@G#n#n#u#C#k#T#y#_$;$:$E#h$z#3$*#=#S#l#l#S#-$y#h$;$7$;$'$C#5$0$|$r$p$s$h$:$:$;$.$/$D#G#F##$s#W#h#",
"h#2$^$t$u$v$w$x$y$-$y#;$;$+$-$w#v#D#D#v#w#B#y#;$h#h$h$;$q$z$)$A$B$M@L@E@Z#j#y#:$b$C$y#D$E$F$G$H$I$p$J$:$7$r#y#u#u#y#r#;$:$h$h$h$",
"h$K$L$M$N$N$M$O$P$3$Q$E#E#W#y#*#=#E@E@=#*#y#($;$:$h$h$;$h$y#-$k#l#k#>$G#u#3$A#;$E#/$j#R$S$G$T$U$V$o$K$;$q$y#j#E@E@B#i#h#U@;$E#h$",
"#$t$W$X$Y$T$G$Z$l$s#`$h#:$W#3$T#k#N@N@k#T##$D#y#r#7$:$s$p$ %.%+%@%k#>$s#($h#:$r#y#A$k#+%#%G$T$T$$%%$%%_$&%U#k#N@N@k#U#y#r#h$E#h$",
"E@u$N$Y$Y$*%=%K#-%-$i$;$;$y#-$S#l#O@O@l#S#E@Z#j#y#q$;$^$L$W$;%>%+%l#S#B#i#b$h#y#j#B$l#@%+%,%$%*%F$J#'%y#x#k#l#O@O@l#k#j#y#h$;$h$",
"E@)%S$!%~%{%)%E@Z#=#*#q#W#y#j#L@l#N@N@M@B$k#l#k#>$)$r#$$}$!%!%{%)%E@Z#=#*#i#W#u#C#M@k#Z#C#E${%>%+%k#>$T#S#N@N@N@N@]%O@E@D#;$7$h$",
"#$^%)%/%/%R$(%_%D#t#=#j#s#W#y#T#k#N@N@S#T#T#k#l#k#x#y#6$J#:%<%E$[%m#D#t#=#B#s##$E@k#T#_%}%D$R$|%@%M@S#k#l#N@N@N@N@O@N@E@u#h$h#h$",
"h#i#j#k#l#E@m#n#n#G#E@E@F#7$U@D#E@1%2%3%I#&%@$k#l#E@G#y#B#k#l#E@m#n#n#G#E@C#F#F#C#E@G#n#n#m#E@l#k#Z#Z#S#l#O@N@M@L@E@C#=#*#y#W#h$",
"h#_$/$>$B$Z#D#n#n#G#E@E@F#7$U@}%C#+%>%%$4%_$&%T#k#E@#$.$)$>$B$Z#D#n#n#G#E@C#F##$Z#C#u#n#n#D#Z#S#>$D#u#T#k#N@N@L@U#D#D#[$=#j#s#h$",
"#$y#W#y#x#w#v#m#u#t#=#j#s#z#y#*#=#3%%${$~$$$!$t#=#j#s#h#b$y#B#w#v#m#u#t#=#-$s#s#-$=#t#u#m#v#w#x#y#r#y#v#=#k#l#E@m#n#n#G#E@E@F#h$",
"E@-$q#($i#*#=#E@E@=#*#q#W#s#j#=#[$I#$$~$|$}$3%=#5%y#W#:$h#($y#*#=#E@E@=#*#y#W#W#y#*#=#E@E@=#*#i#($y#x#Y#v#T#S#C#u#n#n#G#E@E@F#h$",
"E@=#[$u#m#>$k#l#k#-$y#;$;$s#j#=#t#D#G#a$0$9$E$-$i#E#;$A#3$u#G#>$k#l#k#-$y#h$;$;$h$y#-$k#l#k#>$m#u#t#=#B#y#y#x#w#v#m#u#t#=#j#s#h$",
"#$[$=#Z#C#k#l#k#<$s#($h#:$z#3$v#=#Z#Z#4$5$8$g$s#_$b$:$y#j#Z#E@k#l#k#<$s#($;$:$:$;$($s#<$k#l#k#C#Z#=#[$+$r#($y#*#=#E@E@=#*#y#W#h$",
"h$y#j#k#l#l#S#=#*#3$z#h$E#;$h$y#j#C#E@Z#Z#=#v#3$z#;$E#y#j#k#l#l#S#=#*#3$z#h$E#E#h$z#3$*#=#S#l#l#k#j#y#A#y#u#G#>$k#l#k#-$y#h$;$h$",
"h#($s#,$k#k#T#v#Y#-$+$h$;$:$;$W#s##$F#u#D#*#6%-$+$E#;$W#3$,$k#k#T#v#Y#-$+$h$;$;$h$+$-$Y#v#T#k#k#,$y#($7%-$Z#E@k#l#k#<$s#($;$:$h$",
"h$h#h$#$E@k#,$t#=#j#s#h$;$h$h$E#h$A#3$G#F#t#=#j#s#h$;$h#h$#$E@k#,$t#=#j#s#h$;$;$h$s#j#=#t#,$k#E@#$;$h#y#j#k#l#l#k#=#v#3$z#h$E#h$",
"h$7$;$D#C#l#k#=#*#3$z#h$E#h$h$h#;$i#B#Z#C#=#v#3$z#h$E#7$;$D#C#l#k#=#*#3$z#h$E#E#h$z#3$*#=#k#l#C#D#h#7$W#3$,$k#k#T#v#Y#-$+$h$;$h$",
"h$;$h$y#j#E@E@j#y#h$;$h$h$h$h$;$h$y#j#E@E@j#y#h$;$h$h$;$h$y#j#E@E@j#y#h$;$h$h$h$h$;$h$y#j#E@E@j#y#h$;$;$h$3$j#-$3$3$-$j#3$h$;$h$",
"h$E#h$z#y#G##$s#W#;$:$h$h$h$h$E#h$A#3$F#F#s#W#;$:$h$h$E#h$z#y#G##$s#W#;$:$h$h$h$h$:$;$W#s##$G#y#z#h$E#:$;$W#y#y#W#z#+$3$A#h$E#h$",
"h$h$h$h$h$h$h$h$h$h$h$h$h$h$h$h$h$h$h$h$h$h$h$h$h$h$h$h$h$h$h$h$h$h$h$h$h$h$h$h$h$h$h$h$h$h$h$h$h$h$h$h$h$h$h$h$h$h$h$h$h$h$h$h$"};
